<svg xmlns="http://www.w3.org/2000/svg" width="346" height="94" viewBox="0 0 346 93.5"><style>.a{fill:#FFDE0C;}.b{fill:#171816;}.c{fill:#E53629;}.d{fill:#242016;}</style><path d="M114 2.5c-11.1 0-18.2 7.9-18.2 17.9 0 10.1 6.1 17.3 17.4 17.3 3.4 0 6.9-0.6 10.6-2.6 -0.9-1.4-1.4-3.1-1.4-5.1 -2.4 1.4-5.1 2.4-8.4 2.4 -7 0-11.4-5-11.4-12.2 0-6.7 4-12.5 11.6-12.5 3.3 0 6.2 0.8 8.9 2.2V4.2C120.9 3.2 117.8 2.5 114 2.5"/><path d="M201.7 32.3c-0.9 0-1.9-0.1-2.9-0.4V17.6c0.8-0.3 1.9-0.8 3.8-0.8 4.1 0 6.5 3 6.5 7.4C209 29 206.1 32.3 201.7 32.3M198.8 0h-6.2v35.7c2.1 1.1 4.9 1.7 8.1 1.7 8.4 0 14.8-5 14.8-13.7 0-7.8-5.3-12.2-11.8-12.2 -1.9 0-3.4 0.3-4.8 0.7V0z"/><path d="M262.4 32.6c-4.5 0-7.6-2.8-7.6-7.6 0-5.1 3.2-8 7.5-8 1.3 0 2 0.2 3 0.4v14.8C264.5 32.5 263.3 32.6 262.4 32.6M271.6 0.3h-6.3v12c-1-0.2-2.4-0.3-3.3-0.3 -7.8 0-13.5 5.4-13.5 13.2 0 8.1 6 12.6 14 12.6 3 0 6.6-0.6 9.1-1.8V0.3z"/><path d="M305.6 22.2c0.1-3 1.7-5.6 4.8-5.6 3.3 0 4.7 2.8 4.7 5.6H305.6M310.5 11.9c-7 0-11.1 5.6-11.1 13 0 6.7 3.7 12.8 12.6 12.8 3 0 6.1-0.7 8.7-2.3l-1.9-4.3c-1.8 1-3.8 1.7-6.2 1.7 -4.1 0-6.8-2.5-7-6.3h15.8v-1.5C321.5 16.9 317.5 11.9 310.5 11.9"/><path d="M107.5 73.6l2.5-6.8c0.9-2.7 1.5-4.2 1.8-5.4h0.1c0.3 1.1 0.8 2.7 1.7 5.3l2.4 6.8H107.5M114.3 52.8h-5L96 87.3h6.5l3.2-8.6h12.3l3.3 8.6h6.8L114.3 52.8z"/><path d="M175.6 72.3c0.1-3 1.7-5.6 4.8-5.6 3.3 0 4.7 2.8 4.7 5.6H175.6M180.5 62c-7 0-11.1 5.6-11.1 13 0 6.7 3.7 12.8 12.6 12.8 3 0 6.1-0.7 8.7-2.3l-1.9-4.3c-1.8 1-3.8 1.7-6.2 1.7 -4.1 0-6.8-2.4-7-6.3h15.8v-1.5C191.5 67 187.4 62 180.5 62"/><path d="M283.3 72.3c0.1-3 1.7-5.6 4.8-5.6 3.3 0 4.7 2.8 4.7 5.6H283.3M288.2 62c-7 0-11.1 5.6-11.1 13 0 6.7 3.7 12.8 12.6 12.8 3 0 6.1-0.7 8.7-2.3l-1.9-4.3c-1.8 1-3.8 1.7-6.2 1.7 -4.1 0-6.8-2.4-7-6.3h15.8v-1.5C299.2 67 295.2 62 288.2 62"/><path d="M134.8 32.8c-2.2 0-3.7-1.3-3.7-3.4 0-1.3 0.5-2.2 1.5-2.8 0.8-0.5 2-0.7 3.6-0.8l3.2-0.1v5.2l0 0.2C138.6 31.8 136.9 32.8 134.8 32.8M135.9 11.9c-3.4 0-6.6 0.8-9.5 2.5l2 4c1.8-0.9 4-1.7 6.5-1.7 2.9 0 4.8 1.3 4.8 4.1v0.8l-4.2 0.2c-2.5 0.1-4.6 0.5-6.4 1.4 -2.6 1.3-4.2 3.4-4.2 6.7 0 4.8 3.5 7.9 8.2 7.9 3.1 0 5.3-1.3 7.1-2.9h0.5c0.6 0.7 1.3 1.1 1.7 1.3l3.3 1.6 0.1 0.1 0.1-0.1V23.3h0v-2.4C145.8 14.9 142.5 11.9 135.9 11.9"/><path d="M338 55.1l-6.2 1.8v5.7h-4.4v4.9h4.4v13.7c0 4.1 2.7 6.6 7 6.6 2.5 0 5.4-0.7 7.2-1.9l-1.9-4.3c-0.9 0.6-2.3 1.2-3.8 1.2 -1.6 0-2.4-0.8-2.4-3.1v-12.2h0.3v0h2c2.8 0 3.6-1.5 4-2.2l1.2-2.4 0-0.1 0-0.1h-7.2v0h-0.3V55.1"/><path d="M158.3 62c-5.8 0-9.3 3.1-9.3 7.5 0 8.2 11.6 6.7 11.6 10.9 0 1.9-1.8 2.6-4.3 2.6 -2.5 0-4.9-0.8-6.7-2l-0.3 0.7 -1.1 4.2c2 1.1 5 2.1 8.5 2.1 5.3 0 10-2.2 10-7.7 0-8.6-11.6-7.1-11.6-11 0-1.6 1.4-2.2 3.5-2.2 2.1 0 4.1 0.5 5.8 1.1l1.2-4.4v-0.4C163.6 62.5 161.1 62 158.3 62"/><path d="M203.8 62c-5.8 0-9.3 3.1-9.3 7.5 0 8.2 11.6 6.7 11.6 10.9 0 1.9-1.8 2.6-4.3 2.6 -2.4 0-4.6-0.8-6.5-1.9l-1.3 4.9c2 1 4.8 1.9 8.2 1.9 5.3 0 10-2.2 10-7.7 0-8.6-11.6-7.1-11.6-11 0-1.6 1.4-2.2 3.5-2.2 2.1 0 4 0.5 5.8 1.1l1.2-4.6v-0.2C209 62.5 206.5 62 203.8 62"/><path d="M224.4 62c-5.8 0-9.3 3.1-9.3 7.5 0 8.2 11.6 6.7 11.6 10.9 0 1.9-1.8 2.6-4.3 2.6 -2.4 0-4.7-0.8-6.6-1.9l-1.3 4.9c2 1.1 4.9 1.9 8.3 1.9 5.3 0 10-2.2 10-7.7 0-8.6-11.6-7.1-11.6-11 0-1.6 1.4-2.2 3.5-2.2 2.1 0 4 0.5 5.8 1.1l1.2-4.7v-0.1C229.6 62.5 227.2 62 224.4 62"/><path d="M137.8 62c-5.8 0-9.3 3.1-9.3 7.5 0 8.2 11.6 6.7 11.6 10.9 0 1.9-1.8 2.6-4.3 2.6 -2.5 0-4.9-0.8-6.7-2l0 0 2.4 6.3c1.4 0.4 3 0.6 4.8 0.6 5.3 0 10-2.2 10-7.7 0-8.6-11.6-7.1-11.6-11 0-1.6 1.4-2.2 3.5-2.2 2.1 0 4 0.5 5.8 1.1l1.2-4.6v-0.2C143.1 62.5 140.6 62 137.8 62"/><path d="M236.1 61.6l-0.1 0.1v25.7h6.2V69.9c1.8-1.5 3.9-2.5 5.9-2.5 3.2 0 3.7 2.4 3.7 5.3v14.6h6.3V70.8l-0.1-0.9c1.8-1.5 3.9-2.5 5.8-2.5 3.2 0 3.8 2.3 3.8 5.2v14.7h6.2V70.9c0-6.5-3.9-8.9-8.2-8.9 -2.8 0-5.9 1.3-8.9 3.8 -1.2-2.5-3.5-3.8-6.6-3.8s-5.8 1.5-8.3 3.4h-0.2c-0.6-1.3-1.6-1.9-2.2-2.2l-3.2-1.6L236.1 61.6"/><path d="M302.8 61.6l-0.1 0.1v25.7h6.2V70c1.8-1.5 4-2.6 6.1-2.6 3.2 0 3.8 2.5 3.8 5.5v14.4h6.3V71c0-7-4-9-7.9-9 -3.1 0-5.8 1.4-8.5 3.4h-0.3c-0.6-1.3-1.6-1.9-2.2-2.2l-3.2-1.6L302.8 61.6"/><path d="M150.5 11.4l-0.1 0.1V37.1h6.2V19.7c1.8-1.5 3.9-2.5 5.9-2.5 3.2 0 3.7 2.4 3.7 5.3V37.1h6.3V20.6l-0.1-0.9c1.8-1.5 3.9-2.5 5.8-2.5 3.2 0 3.8 2.3 3.8 5.2V37.1h6.2V20.7c0-6.5-3.9-8.9-8.2-8.9 -2.8 0-5.9 1.3-8.9 3.8 -1.2-2.5-3.5-3.8-6.6-3.8 -3 0-5.8 1.5-8.3 3.4h-0.2c-0.6-1.3-1.6-1.9-2.2-2.2l-3.2-1.6L150.5 11.4"/><path d="M231.8 12c-2.8 0-5.3 1.5-6.8 3.3l-0.7-2.8h-5.3v24.7h6.2V19.8c1.9-2.3 3.8-3 5.4-3 2.2 0 3.8 1.4 3.8 1.4V12.5C233.6 12.2 232.7 12 231.8 12"/><path d="M244.5 12.5h-6.3v24.7h6.3V12.5zM241.3 1c-2.2 0-3.8 1.7-3.8 3.8s1.6 3.7 3.8 3.7 3.9-1.7 3.9-3.7C245.2 2.7 243.5 1 241.3 1"/><path d="M286.3 44.3c-4.1 0-6.7-1.5-6.7-4 0-1.6 1.2-2.7 2-3.2 3.3 1.3 11 0.6 11 4.1C292.6 43 290.1 44.3 286.3 44.3M285.9 24.8c-2.8 0-4.3-2.1-4.3-4.6 0-3 1.8-4.6 4.3-4.6 2.8 0 4.4 2.2 4.4 4.6C290.3 23.3 288.4 24.8 285.9 24.8M299.2 10.9h-9.7v0h-3.8c-6.7 0-10.1 4.5-10.1 9.1 0 3.3 1.5 6.2 4.1 7.7 -2 1.4-3 3.2-3 4.6 0 1.3 0.6 2.5 1.6 3.1 -2.6 1.1-4.4 3.2-4.4 6 0 4.3 4.2 7.3 11.5 7.3 8.6 0 13-3.7 13-8.1 0-9.2-16.2-5.1-16.2-9.5 0-0.5 0.2-1 0.6-1.8 0.8 0.3 1.9 0.4 3 0.4 6 0 10.2-3.6 10.2-9.1 0-1.9-0.6-3.8-1.7-5.2h0.7v0c2-0.2 2.7-1.3 3-1.9l1.1-2.1 0-0.1L299.2 10.9z"/><path d="M76.7 51.1c-0.2 4.2-0.8 8-1.8 11.3 -1 3.2-2.5 6.1-4.3 8.5 -3.4 4.5-7.6 6.8-10.4 8.3 -0.2 0.1-1.9 1-9.8 4.9l0.1 0.2h0.2V51.3h26.3v-0.4H50.3v33.8l0.3-0.1c7.9-4 9.6-4.8 9.8-4.9 2.8-1.5 7-3.8 10.5-8.4 1.9-2.5 3.3-5.4 4.4-8.6 1.1-3.4 1.7-7.2 1.8-11.4L76.7 51.1" class="a"/><path d="M30 51.1V84.4h0.2l0.1-0.2c-7.9-4-9.6-4.8-9.8-4.9 -2.8-1.5-7-3.8-10.4-8.3 -1.8-2.4-3.3-5.3-4.3-8.5 -1-3.3-1.7-7.1-1.8-11.3l-0.2 0v0.2h26.5v-0.4H3.5l0 0.2c0.2 4.2 0.8 8.1 1.8 11.4 1 3.3 2.5 6.2 4.4 8.6 3.5 4.6 7.7 6.9 10.5 8.4 0.3 0.1 1.9 1 9.8 4.9l0.3 0.1V51.1H30" class="a"/><polyline points="77 3.7 77 3.5 50.3 3.5 50.3 31 77.2 31 77.2 3.5 77 3.5 77 3.7 76.8 3.7 76.8 30.6 50.7 30.6 50.7 3.9 77 3.9 77 3.7 76.8 3.7 77 3.7 " class="b"/><polyline points="30.2 3.7 30.2 3.5 3.5 3.5 3.5 31 30.4 31 30.4 3.5 30.2 3.5 30.2 3.7 30 3.7 30 30.6 3.9 30.6 3.9 3.9 30.2 3.9 30.2 3.7 30 3.7 30.2 3.7 " class="b"/><path d="M40.3 93.5l-0.8-0.4c-1.2-0.6-19.8-9.9-20.9-10.5C12.6 79.4 0 72.6 0 48.6V0h80.7v48.6c0 23.9-12.6 30.7-18.6 34 -1.1 0.6-19.9 9.9-20.9 10.5L40.3 93.5"/><path d="M48.5 32.7V1.7h-16.4v31H1.7v15.9l0 0.5h30.4v38.3c4.4 2.2 8.2 4.1 8.2 4.1l0 0 0 0c0 0 3.8-1.9 8.2-4.1V49.2h30.4l0-0.5v-15.9H48.5" fill="#FFF"/><rect x="1.7" y="1.7" width="30.4" height="31" class="c"/><rect x="48.5" y="1.7" width="30.4" height="31" class="c"/><path d="M32.1 49.2H1.7c0.2 22.2 11.6 28.7 17.7 32 0.6 0.3 7.1 3.6 12.7 6.4V49.2" class="c"/><path d="M48.5 49.2v38.3c5.6-2.8 12.1-6 12.7-6.4 6.1-3.3 17.5-9.8 17.7-32H48.5" class="c"/><path d="M59 41.2l0.6-0.7L58.8 39.5l-0.8 0.9 0.6 0.7c0 0.4 0 3.7-1.9 4.8 0 0 0.6 0.1 1.5 0 0 0 0.2 0.9 0.6 1.8 0.4-1 0.6-1.8 0.6-1.8 0.9 0.2 1.5 0 1.5 0C58.9 44.8 59 41.6 59 41.2"/><path d="M63.9 35.6l0.6-0.7 -0.8-0.9 -0.8 0.9 0.6 0.7c0 0.4 0 3.7-1.9 4.8 0 0 0.6 0.1 1.5 0 0 0 0.2 0.9 0.6 1.8 0.4-1 0.6-1.8 0.6-1.8 0.9 0.2 1.5 0 1.5 0C63.9 39.3 63.9 36 63.9 35.6"/><path d="M68.9 41.2l0.6-0.7L68.7 39.5l-0.8 0.9 0.6 0.7c0 0.4 0 3.7-1.9 4.8 0 0 0.6 0.1 1.5 0 0 0 0.2 0.9 0.6 1.8 0.4-1 0.6-1.8 0.6-1.8 0.9 0.2 1.5 0 1.5 0C68.8 44.8 68.9 41.6 68.9 41.2"/><path d="M73.8 35.6l0.6-0.7 -0.8-0.9 -0.8 0.9 0.6 0.7c0 0.4 0 3.7-1.9 4.8 0 0 0.6 0.1 1.5 0 0 0 0.2 0.9 0.6 1.8 0.4-1 0.6-1.8 0.6-1.8 0.9 0.2 1.5 0 1.5 0C73.8 39.3 73.8 36 73.8 35.6"/><path d="M54 35.6l0.6-0.7 -0.8-0.9 -0.8 0.9 0.6 0.7c0 0.4 0 3.7-1.9 4.8 0 0 0.6 0.1 1.5 0 0 0 0.2 0.9 0.6 1.8 0.4-1 0.6-1.8 0.6-1.8 0.9 0.2 1.5 0 1.5 0C54 39.3 54 36 54 35.6"/><path d="M12.1 41.2l0.6-0.7L12 39.5l-0.8 0.9 0.6 0.7c0 0.4 0 3.7-1.9 4.8 0 0 0.6 0.1 1.5 0 0 0 0.2 0.9 0.6 1.8 0.4-1 0.6-1.8 0.6-1.8 0.9 0.2 1.5 0 1.5 0C12.1 44.8 12.1 41.6 12.1 41.2"/><path d="M17.1 35.6l0.6-0.7 -0.8-0.9 -0.8 0.9 0.6 0.7c0 0.4 0 3.7-1.9 4.8 0 0 0.7 0.1 1.5 0 0 0 0.2 0.9 0.6 1.8 0.4-1 0.6-1.8 0.6-1.8 0.9 0.2 1.5 0 1.5 0C17 39.3 17.1 36 17.1 35.6"/><path d="M22 41.2l0.6-0.7L21.9 39.5l-0.8 0.9 0.6 0.7c0 0.4 0 3.7-1.9 4.8 0 0 0.6 0.1 1.5 0 0 0 0.2 0.9 0.6 1.8 0.4-1 0.6-1.8 0.6-1.8 0.9 0.2 1.5 0 1.5 0C22 44.8 22 41.6 22 41.2"/><path d="M27 35.6l0.6-0.7L26.8 33.9l-0.8 0.9 0.6 0.7c0 0.4 0 3.7-1.9 4.8 0 0 0.6 0.1 1.5 0 0 0 0.2 0.9 0.6 1.8 0.4-1 0.6-1.8 0.6-1.8 0.9 0.2 1.5 0 1.5 0C26.9 39.3 27 36 27 35.6"/><path d="M7.2 35.6l0.6-0.7 -0.8-0.9L6.2 34.9l0.6 0.7c0 0.4 0 3.7-1.9 4.8 0 0 0.6 0.1 1.5 0 0 0 0.2 0.9 0.6 1.8 0.4-1 0.6-1.8 0.6-1.8 0.9 0.2 1.5 0 1.5 0C7.1 39.3 7.2 36 7.2 35.6"/><path d="M40.5 53.8l0.6-0.7 -0.8-0.9 -0.8 0.9 0.6 0.7c0 0.4 0 3.7-1.9 4.8 0 0 0.6 0.1 1.5 0 0 0 0.2 0.9 0.6 1.8 0.4-1 0.6-1.8 0.6-1.8 0.9 0.2 1.5 0 1.5 0C40.5 57.4 40.5 54.2 40.5 53.8"/><path d="M40.5 70.6l0.6-0.7 -0.8-0.9 -0.8 0.9 0.6 0.7c0 0.4 0 3.7-1.9 4.8 0 0 0.6 0.1 1.5 0 0 0 0.2 0.9 0.6 1.8 0.4-1 0.6-1.8 0.6-1.8 0.9 0.2 1.5 0 1.5 0C40.5 74.2 40.5 71 40.5 70.6"/><path d="M45.1 62.2l0.6-0.7 -0.8-0.9 -0.8 0.9 0.6 0.7c0 0.4 0 3.7-1.9 4.8 0 0 0.6 0.1 1.5 0 0 0 0.2 0.9 0.6 1.8 0.4-1 0.6-1.8 0.6-1.8 0.9 0.2 1.5 0 1.5 0C45.1 65.8 45.1 62.6 45.1 62.2"/><path d="M35.9 62.2l0.6-0.7 -0.8-0.9 -0.8 0.9 0.6 0.7c0 0.4 0 3.7-1.9 4.8 0 0 0.6 0.1 1.5 0 0 0 0.2 0.9 0.6 1.8 0.4-1 0.6-1.8 0.6-1.8 0.9 0.2 1.5 0 1.5 0C35.9 65.8 35.9 62.6 35.9 62.2"/><path d="M45.1 79l0.6-0.7 -0.8-0.9 -0.8 0.9 0.6 0.7c0 0.4 0 3.7-1.9 4.8 0 0 0.6 0.1 1.5 0 0 0 0.2 0.9 0.6 1.8 0.4-1 0.6-1.8 0.6-1.8 0.9 0.2 1.5 0 1.5 0C45.1 82.6 45.1 79.3 45.1 79"/><path d="M35.9 79l0.6-0.7 -0.8-0.9 -0.8 0.9 0.6 0.7c0 0.4 0 3.7-1.9 4.8 0 0 0.6 0.1 1.5 0 0 0 0.2 0.9 0.6 1.8 0.4-1 0.6-1.8 0.6-1.8 0.9 0.2 1.5 0 1.5 0C35.9 82.6 35.9 79.3 35.9 79"/><path d="M40.5 15.5l0.6-0.7 -0.8-0.9 -0.8 0.9 0.6 0.7c0 0.4 0 3.7-1.9 4.8 0 0 0.6 0.1 1.5 0 0 0 0.2 0.9 0.6 1.8 0.4-1 0.6-1.8 0.6-1.8 0.9 0.2 1.5 0 1.5 0C40.5 19.2 40.5 15.9 40.5 15.5"/><path d="M45.1 7.1l0.6-0.7 -0.8-0.9 -0.8 0.9 0.6 0.7c0 0.4 0 3.7-1.9 4.8 0 0 0.6 0.1 1.5 0 0 0 0.2 0.9 0.6 1.8 0.4-1 0.6-1.8 0.6-1.8 0.9 0.2 1.5 0 1.5 0C45.1 10.8 45.1 7.5 45.1 7.1"/><path d="M35.9 7.1l0.6-0.7 -0.8-0.9 -0.8 0.9 0.6 0.7c0 0.4 0 3.7-1.9 4.8 0 0 0.6 0.1 1.5 0 0 0 0.2 0.9 0.6 1.8 0.4-1 0.6-1.8 0.6-1.8 0.9 0.2 1.5 0 1.5 0C35.9 10.8 35.9 7.5 35.9 7.1"/><path d="M45.1 23.9l0.6-0.7 -0.8-0.9 -0.8 0.9 0.6 0.7c0 0.4 0 3.7-1.9 4.8 0 0 0.6 0.1 1.5 0 0 0 0.2 0.9 0.6 1.8 0.4-1 0.6-1.8 0.6-1.8 0.9 0.2 1.5 0 1.5 0C45.1 27.6 45.1 24.3 45.1 23.9"/><path d="M35.9 23.9l0.6-0.7 -0.8-0.9 -0.8 0.9 0.6 0.7c0 0.4 0 3.7-1.9 4.8 0 0 0.6 0.1 1.5 0 0 0 0.2 0.9 0.6 1.8 0.4-1 0.6-1.8 0.6-1.8 0.9 0.2 1.5 0 1.5 0C35.9 27.6 35.9 24.3 35.9 23.9"/><path d="M25.6 17l0.1 0.4 0.2 0.8c0.3 1.5 0.6 1.9 1.3 1.9 0.4 0 0.7-0.2 0.9-0.6l0.2-0.5 0.2-0.2c0.3 0 0.4 0.3 0.4 0.9 0 0.2 0.1 0.6 0.2 1.3 0.1 0.4 0.1 0.8 0.1 1.1l-0.2 0.8c0.1 0.5 0.2 1.2 0.2 1.6 0 0.6-0.1 1.2-0.3 1.5 0.1 0.4 0.1 0.6 0.1 1l-0.1 0.9c-0.1 0.6-0.1 0.8-0.1 0.9l0.1 0.3 0.1 0.3 -0.1 0.1 -0.5-0.2 -0.6-0.3 -0.6-0.5c-0.5 0.4-0.7 0.5-2 0.9l-0.6 0.2 -0.3 0.2c-0.2 0-0.3-0.4-0.3-1.1 0-0.5 0.1-1.1 0.2-1.4 -0.4-0.1-0.7-0.2-0.9-0.2l-0.4 0.1 -0.1 0 -0.1-0.2 0.2-0.6 0.3-0.6 0.6-0.7 0.7-0.4 0.9-0.2c0.6-0.1 0.9-0.4 0.9-0.8 0-0.4-0.2-0.6-0.8-0.8l-1.1-0.4 -1-0.5c-0.6-0.4-0.7-0.4-0.9-0.4l-0.3 0.5c0 0.5 0.3 0.8 0.7 0.8l0.3-0.1 0.3-0.1 0.2 0.2 0 0.1 0 0.4c0 0.4-0.3 0.8-0.8 1.5l-0.2 0.3c-0.2 0.8-0.7 1.6-1.4 2l-0.3 0.2c-0.5 1.2-1.8 1.6-2.1 2.5l-0.2 0.1c-0.2 0-0.4-0.2-0.6-0.6l-0.4-0.4 -0.5 0.1 -0.4 0.1h-0.9c-0.5 0-1.1 0.1-1.4 0.3l-0.3 0.1 -0.2-0.2 -0.1-0.2c0-0.5 0.3-1.4 0.8-2.1 0.3-0.4 0.4-0.5 0.7-0.8 -0.1-0.4-0.4-0.8-0.7-0.9l-0.4-0.1 -0.1-0.1c0-0.1 0.2-0.3 0.6-0.5 0.5-0.3 1-0.4 1.4-0.4 0.4 0 0.8 0.2 1.3 0.5 0.7 0.5 0.9 0.6 1.2 0.6 0.5 0 1.1-0.5 1.1-1 0-0.3-0.2-0.7-0.7-1.4 -0.7-0.9-0.9-1.4-0.9-2.1 0-0.4 0.1-1 0.3-1.2l0.3-0.4 0.1-0.2 -0.5-0.3c-0.4 0-1.2 0.3-1.8 0.7l-0.5 0.6 0.1 0.2 0.3 0.2 0.1 0.1 -0.1 0.2 -0.5 0.7c-0.3 0.3-0.7 0.8-1.1 1.1l-0.3 0.3 -0.2 0.4c-0.2 0.3-0.7 0.8-1.1 1.2l-0.4 0.3 -0.2 0.4 -0.3 0.5 -0.6 0.8 -0.7 0.7c-0.2 0.2-0.4 0.7-0.7 1.6 -0.2 0.6-0.3 0.9-0.4 0.9L9.2 29.4c-0.5-0.6-0.9-0.9-1.2-0.9l-0.3 0.1 -0.7 0.3L6.1 29c-0.7 0.1-1 0.3-1.4 0.8l-0.2 0.2 -0.1-0.3 0-0.2 0.1-0.7c0.1-0.7 0.3-1.3 0.5-1.7l0.4-0.8 0.1-0.4c0-0.6-0.6-1.1-1.4-1.2l-0.3-0.2 0.5-0.6c0.5-0.4 1.2-0.7 1.6-0.7 0.3 0 0.7 0.1 1.2 0.3l0.6 0.2 0.6 0.1c0.6 0 1.2-0.5 1.9-1.8 0.3-0.6 0.5-1 0.5-1.3 0-0.7-0.3-1-0.8-1 -0.4 0-0.8 0.2-1.1 0.5L8.4 21l0 0.3 0 0.1 -0.2 0.4c-0.2 0-0.6-0.3-1.6-1.6 -0.8-0.9-0.9-1.3-1-2.2 -0.9-1.1-1.1-1.6-1.1-2.4l0-0.5c-0.6-0.7-0.8-1.1-0.8-1.8l0.2-0.7c-0.3-0.5-0.4-0.7-0.5-1l-0.1-0.5L3 10.1 2.7 9.6c0-0.3 0.2-0.4 1.1-0.6L3.8 8.4l0.1-0.6 0.2-1c0.1-0.4 0.1-0.7 0.1-0.8 0-0.2 0-0.3-0.2-0.8L3.7 4.6 3.5 4.2l0.2-0.1c0.3 0 0.9 0.4 1.6 1 1.5 1.2 1.8 1.7 2 3.2L7.4 8.8c0.7 0.5 1.1 1.2 1.1 1.8 0 0.5-0.2 1.2-0.5 1.6L7.5 13l-0.2 0.9c0 0.5 0.1 0.9 0.5 1.5 0.4 0.7 0.7 1 1.1 1 0.7 0 1.3-1.2 1.3-2.5v-0.2l0-0.5 0.1-0.8c0-0.4 0.1-0.6 0.1-0.7l0-0.6 0-0.4 -0.3-0.5L9.5 9.5c-0.8-0.9-1.3-1.7-1.3-2.4 0-0.8 0.6-1.4 1.3-1.4l0.5 0.1V5.7c0-1.1 0.2-2 0.5-2l0.1 0 0.5 0.4 0.6 0.4 0.2 0.2 0.3-0.7 0.4-0.5 0.3-0.4 0.1-0.2 0.2-0.2 0.2 0.4c0.1 0.2 0.1 0.2 0.5 0.6l0.3 0.3L14.5 4.5l0.1 0.2 0.5-0.5 0.4-0.2 0.3-0.1 0.1 0.2 0.2 0.4c0.3 0.5 0.4 0.7 0.4 0.9l0 0.3v0.3c0.8 0.3 1.2 0.7 1.2 1.6 0 0.7-0.3 1.4-1 2.2 -0.4 0.5-0.5 0.6-0.5 1 0 1.9 1.3 3 3.7 3l1.7 0c1.1 0 1.8 0.1 2.8 0.5 1.2 0.4 1.6 0.5 1.9 0.5l0.3-0.1 0.2-0.2c0-0.4-0.6-0.7-2.7-1.2 -4.2-1.2-6-2.9-6-5.7 0-2.2 1.8-3.9 4.1-3.9 0.8 0 1.9 0.2 2.6 0.4l1.1 0.4 0.6 0.1c0.4 0 0.5-0.3 0.6-0.9l0.3-0.4c0.3 0 0.8 0.4 1.2 1 0.4 0.6 0.7 1.3 0.7 1.7 0 0.6-0.3 1-0.9 1.4 -0.6 0.9-1.3 1.3-2.2 1.3 -0.7 0-1.8-0.4-3.5-1.4 -0.6-0.3-0.9-0.5-1.2-0.5 -0.5 0-0.7 0.3-0.7 0.7 0 0.4 0.3 0.6 1 0.9 1.1 0.4 1.4 0.5 1.8 1 1.3 0.2 1.9 0.5 2.7 1.1 2.3 0.7 3.7 2.3 3.7 4 0 1.7-1.2 3-2.8 3C26.4 17.2 26.2 17.2 25.6 17"/><path d="M28.1 28.3l-0.1-0.6c0.3-1.4 0.1-1.5-0.6-2.6l-0.1-0.2 0.2-0.2 0.3 0.2 0.3 0.1c0.2 0 0.2-0.2 0.2-0.7 0-0.5 0-0.8-0.2-0.9l-0.4-0.4 -0.3-0.3 -0.1-0.2 0.2-0.2 0.6 0.1 0.1 0 0.1-0.2 0-0.1 -0.1-0.5 -0.2-0.6 -0.2-0.2 -0.1 0 -0.6 0.1 -0.1 0c-0.8 0-1.7-0.7-2-1.6l-0.5-1.7c-0.2-0.5-0.5-1-1.2-1.6l-0.5-0.3 -0.5-0.1 -0.1-0.1 0.3-0.2 0.8 0.1c0.3 0 0.8 0.2 1.4 0.4 0.8 0.3 1.3 0.4 1.7 0.4 1.3 0 2.1-0.7 2.1-1.9 0-0.8-0.4-1.7-1.1-2.3l-0.9-0.6 -0.1 0.1 0 0.3 0 0 -0.2 0.2 -0.4-0.5c-0.5-1-1.3-1.6-2.1-1.6l-0.2 0.1 0.1 0.4 0.2 0.5 0.1 0.2 -0.1 0.1 -0.4-0.2 -0.4-0.4 -0.3-0.5c-0.3-0.4-0.5-0.6-1.1-0.9l-0.6-0.3 -0.3-0.1 -0.1 0.1 0.1 0.3 0.3 0.5L20.9 9.9c-0.2 0-0.6-0.4-1-0.9 -0.3-0.5-0.5-1-0.5-1.4 0-1.1 0.8-1.9 1.9-1.9 0.6 0 1.3 0.2 1.9 0.6l1.2 0.7c0.4 0.3 1 0.5 1.4 0.5l0.8-0.1 0.3-0.1 0.1-0.1 -0.1-0.1 -0.2-0.1 -0.6-0.1 -0.7-0.3c-0.7-0.3-1.1-0.5-1.3-0.6 -0.4-0.3-0.7-0.4-0.8-0.5l-0.3-0.2 0.1-0.1 0.3 0.1 1 0.4 1.1 0.4c0.5 0.2 1.4 0.4 1.7 0.4 0.5 0 0.8-0.4 0.8-0.9l-0.4-1.1 -0.2-0.1L27.4 4.4l0 0.2 0 0.3 -0.5 0.6 -0.4-0.1 -1.7-0.5c-1.4-0.5-2.1-0.6-2.8-0.6 -2 0-3.5 1.4-3.5 3.2 0 2 1.4 3.4 5 4.6 3.5 1.2 4 1.5 4 2.4 0 0.5-0.5 1-1.1 1l-0.6-0.1c-0.1 0-0.7-0.2-1.8-0.4 -1.1-0.3-2-0.4-3.2-0.4 -2.5 0-3.9 0.4-5.1 1.6L15 16.5l-0.2 0 -0.4 0h0l-0.7 0.5c-0.3 0.4-0.4 0.7-0.4 0.7l-0.3 0.2c-0.2 0-0.4-0.2-0.6-0.8l-0.5-0.8 -0.5-0.5 -0.1-0.2 0.1-0.2 0.4-0.7 0.2-0.4c0.2 0 0.2 0.2 0.2 0.7l0.2 0.7 0.3 0.6 0.2 0.1c0.3 0 0.6-0.6 0.7-1.3 0.1-0.6 0.1-0.7 0.2-0.7l0.1 0.1 0.2 0.5 0.3 0.4 0.3 0.2 0 0c0.2 0 0.3-0.1 0.3-0.6l0-0.3 -0.1-0.4 0-0.2 0.2-0.3 0.2 0.1 0.3 0.3 0.5 0.3 0.3-0.2 -0.2-0.6 -0.2-0.3c-0.2-0.4-0.4-0.5-0.6-0.5l-0.3 0 -0.3 0.1 -0.2 0.1 -0.1-0.1c0-0.2 0.2-0.6 0.4-1.1 0.2-0.3 0.3-1 0.4-2 0.1-1.3 0.3-2.2 0.5-2.2L16.1 8 16.1 8.3l0 0.2 0.1 0.4c0.2 0 0.5-0.3 0.7-0.9l0.1-0.5 0-0.1 -0.5-1 -0.5-0.2L15.8 6.3v-0.6l-0.1-0.3 -0.1-0.3 -0.1-0.3c-0.6 0.3-0.8 0.5-1 0.8L14.1 5.9l-0.1-0.1 0.1-0.4 0-0.1c0-0.6-0.3-1.1-0.9-1.5l-0.2 0.2c-0.3 0.5-0.9 0.9-0.8 1.6l-0.1 0.3 -0.1 0 -0.2-0.3L11.5 5.2l-0.4-0.3 -0.2-0.2 -0.1 0.2 -0.1 0.4 0 0.4 0 0.4 0 0.1 -0.2 0.3 -0.3-0.1L9.7 6.4c-0.4 0-0.7 0.3-0.7 0.7 0 0.5 0.2 1 0.4 1.4l0.3 0.4 0.3 0.2 0.1-0.5 -0.1-0.4 0-0.2 0.2-0.3c0.1 0 0.2 0.2 0.3 0.6l0.2 1 0.2 1.2 0.3 1c0.2 0.5 0.4 0.8 0.4 0.9L12 12.8l-0.1 0.1 -0.2-0.1 -0.3-0.1 -0.2 0c-0.4 0-0.5 0.4-0.5 2.1 0 1 0.2 2.5 0.5 3.2l0.5 1.4 0.1 0.6c0 1.9-2.5 4.8-5.2 6.2 -1 0.5-1.3 1-1.4 2.1l0 0.3c0.4-0.2 0.6-0.3 0.9-0.4 0.8-0.2 0.9-0.3 1-0.7l0.1-0.3c0-0.1 0.1-0.2 0.7-0.5l0.4-0.3 0.3-0.3 0.1 0.1 0 0.1 -0.3 0.7 0 0.2c0 0.5 0.3 1 0.9 1.3 0.1-0.6 0.2-0.8 0.3-1.1l0.5-0.7c0.2-0.3 0.2-0.6 0.2-1.1L10.2 24.7l0-0.2 0.2-0.2 0.2 0.1 0.1 0.5 0.2 0.2c0.2 0 0.6-0.3 0.9-0.9l0.2-0.7 0-0.3 -0.1-0.4 0-0.1 0.2-0.3 0.1 0 0.2 0.6 0.3 0.3 0.6-0.6c0.2-0.3 0.2-0.7 0.2-1.1 0-0.6 0.1-0.7 0.3-0.7l0.1 0.1 0.1 0.3 0.2 0.2 0.6-0.6 0.1-0.2 -0.2-0.4 -0.3-0.6c0-0.3 0.1-0.5 0.3-0.9l0.3-0.6c0.3-0.6 0.4-0.8 0.6-0.8l0.2 0.2 -0.1 0.2 -0.1 0.3 0.2 0.2 0.5-0.2c0.1 0 0.3-0.1 0.7-0.3l0.9-0.3 0.5-0.1 0.5 0.1 0.6 0.1 0.4-0.4 -0.4-0.8 -0.1-0.2 0-0.1 0.1-0.1c0.2 0 0.6 0.4 0.9 1 2.2 3.5 3 4.3 4.5 4.8 1.5 0.5 1.9 0.8 1.9 1.7 0 0.5-0.3 1.1-0.8 1.8 -1.1 1.6-1.4 2.2-1.4 3.2l0 0.2 0.3-0.1 0.4-0.2 0.6-0.1 0.4-0.5 0-0.1 -0.1-0.6 0-0.1 0.2-0.5 0.1-0.1 0.2 0.2 0.4 0.9C27.4 27.9 27.6 28.1 28.1 28.3" class="a"/><path d="M7.4 9.7l-0.3 0.5 -0.1 0.5c-0.1 0.5-0.1 0.5-0.1 0.6l0.3 0.6 0.6-0.7 0.1-0.6 -0.1-0.6L7.4 9.7" class="a"/><path d="M5.2 5.9l0.4 0.4C6.2 6.8 6.5 7.8 6.5 9.2c0 0.3 0 0.5-0.1 1.3 0 0.4-0.1 0.8-0.1 1.1 0 3.2 1 5.6 2.4 5.6 0.4 0 0.7-0.2 1.1-0.8l0.2-0.2 0.1 0.2 0.1 0.6 0.1 0.5 0 0.5 0.1 0.5 0 0.1 -0.2 0.2 -0.5 0.1 -0.7 0.3c-0.4 0.2-0.6 0.4-0.7 0.5L8.1 20.3 8 20.4c-0.1 0-0.4-0.3-0.7-0.7 -0.2-0.4-0.4-0.7-0.4-0.8l0.2-0.1h0.1l0.3 0 0.2 0 0.2 0 0.2-0.2 -0.1-0.2 -1.2-0.5c-0.4-0.1-0.7-0.4-0.9-0.8 -0.3-0.6-0.5-1-0.5-1.2l0.2-0.3 0.2 0.1 0.3 0.1 0.2-0.2 -0.2-0.3c-1-0.7-1.5-1.5-1.5-2.2l0.2-0.3 0.2 0 0.3 0h0l0.2-0.2L5.4 12.5l-0.4-0.2 -0.4-0.4c0-0.1-0.2-0.3-0.4-0.8L3.8 10.4 3.6 9.9 3.4 9.7l0.8-0.2c0.4 0 0.6 0.2 0.8 0.9 0.2 0.4 0.3 0.7 0.4 0.7L5.6 10.7 5.5 9.9 5.4 9.4l-0.1-0.4L5 8.9 4.8 8.6 4.6 8 4.7 7.6c0.3-1 0.3-1.4 0.3-1.7L5 5.6 5.2 5.9" class="a"/><path d="M8.3 24.5l-0.7-0.2 -0.5-0.2c-0.4-0.2-0.7-0.3-1-0.3 -0.4 0-0.7 0.1-1.1 0.4l0.2 0.2 0.5 0.4 0.5 0.4 0.4 0.2C7.2 25.3 7.6 25.1 8.3 24.5" class="a"/><path d="M18.2 29.2l0.5-0.7c0.7-0.6 1.1-1.1 1.1-1.4v-0.6l0.2-0.4 0.2 0.1 0.1 0.3 0.2 0.1 0.4-0.3 0.3-0.4 0.2-0.5 -0.1-0.3 -0.2-0.4 -0.1-0.4 0.2-0.3 0.2 0.1 0.2 0.3 0.2 0.1 0.3-0.2 0.2-0.4 0.1-0.2 -0.2-0.2 -0.3-0.2c-0.4-0.2-0.8-0.9-0.8-1.6l0.1-0.3 0.2-0.4 0.1-0.4 -0.3-0.8 -0.3-0.5c-0.2-0.4-0.2-0.5-0.4-0.5l-0.1 0 -0.2 0.1 -0.3 0.2 -0.3 0.4 -0.4 0.2 -0.4 0.9c0 0.7 0.1 0.9 1 2.4 0.3 0.6 0.5 1.1 0.5 1.5 0 1.1-0.9 1.8-2.8 2.3l-1.2 0.3c-0.9 0.2-1.4 0.8-1.6 1.8 0.4-0.2 0.5-0.2 1.1-0.2l0.4 0 0.1 0 0.6-0.3 0.8-0.7 0.4-0.2 0.3-0.2 0.1 0 0.1 0.1 -0.2 0.4c-0.3 0.3-0.4 0.6-0.4 1L18.2 29.2" class="a"/><path d="M15 25.2l0.8 0.7 0.5 0.4 0.4-0.1 0.2-0.1c0.4-0.1 0.6-0.1 0.6-0.3l-0.1-0.2 -0.6-0.5 -0.8-0.3C15.6 24.8 15.4 24.9 15 25.2" class="a"/><path d="M23.3 26.6l0.2 0 0.2 0 0.2 0 0.1 0c0.6 0 1.1-0.5 1.1-1l-0.5-0.3C24 25.3 23.6 25.7 23.3 26.6" class="a"/><path d="M13.7 8.8l0.3 0.4c0.1 0 0.2-0.3 0.5-0.7 0.4-0.6 0.7-1.2 0.7-1.5l-0.1-0.2 0 0L14.8 7c-0.2 0.2-0.4 0.3-0.9 0.5l-0.4 0.4 0 0.2 0.1 0.4L13.7 8.8" class="d"/><path d="M12.1 7.4l0.4 0.2 0.2 0.2 0 0.2 0 0.5c0 0.5-0.4 0.5-0.5 0.5l-0.2-0.3L11.4 8.1c-0.2-0.2-0.3-0.6-0.4-1.2l0-0.1 0.2-0.2 0.3 0.1L12.1 7.4" class="d"/><path d="M13.2 10.1h-0.1l-0.3 0 -0.3-0.2 -0.4-0.1 -0.4 0.3c0 0.2 0.1 0.6 0.3 1.1l0.3 0.8c0.3 0.7 0.6 1 1 1 0.3 0 0.4-0.3 0.6-0.9 0.5-1.3 0.8-1.5 0.8-1.9l-0.4-0.4 -0.2-0.1 -0.4 0.3L13.2 10.1" class="d"/><polyline points="13.5 10.8 13.1 10.8 12.8 10.8 12.7 10.9 12.6 11 12.7 11.7 12.8 12.2 13.2 12.6 13.7 12.1 13.7 11.6 13.8 11 13.7 10.8 13.6 10.8 13.5 10.8 " class="a"/><path d="M73.6 17l0.1 0.4 0.2 0.8c0.3 1.5 0.6 1.9 1.3 1.9 0.4 0 0.7-0.2 0.9-0.6l0.2-0.5 0.2-0.2c0.3 0 0.4 0.3 0.5 0.9 0 0.2 0.1 0.7 0.2 1.3 0.1 0.4 0.1 0.8 0.1 1.2l-0.2 0.7 0 0.3c0.1 0.5 0.1 0.7 0.1 0.9 0 1.1-0.1 1.4-0.3 1.9 0.1 0.4 0.1 0.6 0.1 0.9 0 0.2 0 0.5-0.1 0.9l-0.1 0.8 0 0.5 0.1 0.3 -0.1 0.1 -0.5-0.2 -0.6-0.3 -0.6-0.5c-0.5 0.4-0.6 0.5-1.2 0.6 -0.9 0.2-1.2 0.3-1.3 0.5l-0.4 0.2c-0.2 0-0.3-0.4-0.3-1 0-0.8 0-1.2 0.2-1.6 -0.5-0.2-0.8-0.2-0.9-0.2l-0.4 0.1 -0.1 0 -0.1-0.2c0-0.3 0.2-0.8 0.4-1.2 0.3-0.6 0.9-1.1 1.3-1.1l0.9-0.2c0.6-0.1 0.9-0.4 0.9-0.8 0-0.4-0.2-0.6-0.8-0.8l-1.1-0.4 -1-0.5 -0.6-0.3 -0.3-0.1 -0.4 0.4c0 0.4 0.3 0.8 0.7 0.8l0.3-0.1 0.2-0.1 0.2 0.3c0 0.5-0.3 1.3-0.6 1.6l-0.3 0.4 -0.2 0.3c-0.1 0.7-0.7 1.6-1.4 2l-0.3 0.2c-0.5 1.2-1.8 1.6-2.1 2.5l-0.2 0.1c-0.2 0-0.4-0.2-0.6-0.6l-0.4-0.4 -0.5 0.1 -0.4 0.1h-0.9c-0.5 0-1.1 0.1-1.4 0.3l-0.3 0.1 -0.2-0.4c0-0.8 0.6-2.1 1.4-2.9 -0.1-0.5-0.4-0.8-0.7-0.9l-0.5-0.1 -0.1-0.1c0-0.2 0.2-0.3 0.6-0.5 0.7-0.3 0.9-0.4 1.4-0.4 0.5 0 0.9 0.2 1.3 0.5 0.7 0.5 0.9 0.6 1.2 0.6 0.5 0 1.1-0.5 1.1-1 0-0.4-0.2-0.7-0.7-1.4 -0.7-0.9-0.9-1.4-0.9-2.2 0-0.5 0.1-0.8 0.5-1.5l0.1-0.3 -0.5-0.3c-0.3 0-0.6 0.1-1.1 0.3 -0.8 0.4-1.2 0.7-1.2 0.9l0.1 0.2 0.3 0.2 0.1 0.1 -0.1 0.2c-0.1 0.1-0.2 0.3-0.5 0.7 -0.4 0.5-0.7 0.8-1.1 1.1l-0.3 0.3 -0.2 0.4c-0.2 0.3-0.7 0.9-1.1 1.2l-0.4 0.3 -0.2 0.4c-0.3 0.5-0.7 1.1-1 1.3l-0.7 0.7c-0.2 0.2-0.5 0.8-0.7 1.6 -0.2 0.6-0.3 0.9-0.4 0.9l-0.2-0.2c-0.5-0.6-1-0.9-1.2-0.9l-0.3 0.1 -0.7 0.3 -0.9 0.2c-0.8 0.2-1.1 0.3-1.4 0.8l-0.2 0.2 -0.2-0.3 0-0.2c0 0 0.1-0.3 0.1-0.7 0.1-0.7 0.3-1.3 0.5-1.7l0.5-0.8 0.1-0.4c0-0.6-0.6-1.1-1.4-1.2l-0.3-0.2 0.5-0.6c0.5-0.4 1.1-0.7 1.6-0.7 0.3 0 0.7 0.1 1.2 0.3l0.6 0.2 0.6 0.1c0.6 0 1.2-0.5 1.9-1.8 0.3-0.6 0.5-1 0.5-1.3 0-0.7-0.3-1-0.8-1 -0.4 0-0.8 0.2-1.1 0.5l-0.4 0.8 0 0.3 0 0.1 -0.2 0.3c-0.2 0-0.4-0.2-0.9-0.7l-0.7-0.8c-0.8-0.9-0.9-1.3-1-2.2 -0.9-1.1-1.1-1.7-1.1-2.4l0-0.5c-0.6-0.8-0.7-1-0.7-1.8l0.2-0.7c-0.3-0.5-0.4-0.7-0.5-1l-0.1-0.5 -0.4-1 -0.3-0.5c0-0.3 0.3-0.4 0.9-0.6l0.2-0.1 -0.1-0.6 0.1-0.6 0.2-1 0.1-0.8c0-0.2 0-0.4-0.2-0.8L51.7 4.6l-0.2-0.3 0.2-0.2 0.3 0.1c0.9 0.5 1.8 1.2 2.5 2 0.6 0.6 0.8 1.2 0.9 2.6 0.8 0.6 1.1 1.1 1.1 2 0 0.5-0.2 1-0.5 1.5 -0.3 0.5-0.5 0.7-0.5 0.8l-0.2 0.9c0 0.5 0.1 0.9 0.5 1.5 0.4 0.7 0.7 1 1.1 1 0.7 0 1.3-1.2 1.3-2.4l0-0.3v-0.7l0.1-0.6 0-0.7 0.1-0.6 0-0.3c0-0.3-0.1-0.3-0.8-1.2 -0.9-0.9-1.3-1.7-1.3-2.5 0-0.7 0.6-1.3 1.3-1.3l0.5 0.1V5.6l0-0.5 0.2-0.7c0.1-0.5 0.2-0.6 0.4-0.6l0.1 0 0.5 0.4 0.6 0.4 0.2 0.2 0.3-0.7 0.4-0.5 0.3-0.4 0.2-0.2 0.2-0.2 0.2 0.4 0.2 0.3 0.3 0.3c0.3 0.2 0.5 0.6 0.6 1.1l0.5-0.5 0.4-0.2 0.3-0.1 0.1 0.2 0.2 0.4c0.3 0.5 0.4 0.6 0.4 1l0 0.2v0.3c0.8 0.2 1.2 0.7 1.2 1.6 0 0.7-0.3 1.4-1 2.2 -0.4 0.5-0.5 0.7-0.5 1.1 0 1.8 1.4 2.9 3.7 3l1.7 0c1.1 0 1.8 0.1 2.8 0.5 1.2 0.4 1.6 0.5 1.9 0.5l0.5-0.3c0-0.4-0.6-0.7-2.7-1.2 -4.2-1.2-6.1-2.9-6.1-5.7 0-2.2 1.8-3.9 4.2-3.9 0.7 0 1.9 0.2 2.6 0.4l1.1 0.4 0.6 0.1c0.4 0 0.5-0.2 0.6-0.9l0.3-0.4c0.3 0 0.8 0.4 1.2 1 0.4 0.5 0.7 1.3 0.7 1.7 0 0.6-0.3 1-0.9 1.3 -0.6 0.9-1.3 1.3-2.2 1.3 -0.7 0-2-0.5-3.5-1.4 -0.6-0.4-0.9-0.5-1.2-0.5 -0.5 0-0.8 0.3-0.8 0.7 0 0.4 0.3 0.6 1 0.9 1.2 0.4 1.5 0.6 1.8 1 1.3 0.2 1.9 0.5 2.7 1.1 2.4 0.8 3.7 2.2 3.7 4.1 0 1.7-1.1 2.9-2.7 2.9C74.4 17.2 74.2 17.2 73.6 17"/><path d="M76.2 28.3l-0.1-0.5 0-0.3c0.1-0.5 0.1-0.7 0.1-1l-0.2-0.5 -0.3-0.4 -0.3-0.7 0.1-0.2 0.1 0 0.2 0.1 0.3 0.1c0.2 0 0.2-0.2 0.2-0.7 0-0.7-0.1-1-0.5-1.3l-0.4-0.3L75.4 22.4l0.2-0.2 0.3 0.1 0.3 0.1 0.1 0 0.1-0.2 0-0.1 -0.1-0.5c-0.1-0.6-0.2-0.8-0.3-0.8l0 0 -0.7 0.1 -0.1 0c-0.8 0-1.8-0.8-2-1.6l-0.5-1.7c-0.1-0.5-0.6-1.1-1.2-1.6l-0.5-0.3 -0.5-0.1L70.3 15.6l0.3-0.2c0.7 0 1.4 0.1 2.3 0.4 0.8 0.3 1.3 0.4 1.7 0.4 1.3 0 2.1-0.7 2.1-1.8 0-0.6-0.2-1.3-0.5-1.7 -0.3-0.4-0.7-0.8-1.2-1.1l-0.2-0.1 -0.1 0.1 0 0.3v0l-0.2 0.2 -0.5-0.5c-0.5-1-1.2-1.6-2-1.6l-0.3 0.2 0.1 0.3 0.2 0.5 0.1 0.2 -0.1 0.1L71.6 11.1l-0.4-0.4 -0.3-0.5C70.6 9.8 70.3 9.6 69.8 9.3l-0.6-0.3L68.9 8.9l-0.1 0.1 0.1 0.3 0.2 0.5L69 9.9c-0.2 0-0.5-0.3-1-0.9 -0.3-0.5-0.5-0.9-0.5-1.4 0-1.1 0.8-1.9 1.9-1.9 0.6 0 1.2 0.2 1.9 0.6l1.2 0.7c0.4 0.3 1 0.5 1.4 0.5 0.2 0 0.3 0 0.7-0.1l0.3-0.1 0.1-0.2 -0.2-0.2c-0.6 0-1.8-0.5-2.5-1 -0.5-0.3-0.7-0.5-0.9-0.5l-0.4-0.3 0.1-0.1 0.2 0 1.1 0.4 1.1 0.4c0.5 0.2 1.4 0.4 1.7 0.4 0.5 0 0.8-0.3 0.8-0.8l-0.2-0.7 -0.4-0.6 -0.2 0.3 0 0.1 0 0.3 -0.5 0.6 -0.4-0.1L72.9 4.8c-1.5-0.5-2-0.6-2.7-0.6 -2 0-3.5 1.4-3.5 3.2 0 2.1 1.4 3.3 5 4.6 3.5 1.2 4 1.5 4 2.4 0 0.5-0.5 1-1.1 1l-0.6-0.1c-0.2 0-0.7-0.2-1.8-0.4 -1.1-0.3-2-0.4-3.2-0.4 -2.6 0-3.8 0.4-5.1 1.6l-0.8 0.3 -0.2 0 -0.4 0 -0.7 0.5 -0.4 0.7L61 17.8c-0.3 0-0.4-0.2-0.7-0.8l-0.5-0.8 -0.5-0.5 -0.1-0.2 0.1-0.2 0.2-0.4 0.1-0.3 0-0.2 0.2-0.1c0.2 0 0.2 0.1 0.2 0.7l0.2 0.7 0.3 0.6 0.2 0.1c0.3 0 0.6-0.6 0.7-1.3 0.1-0.5 0.1-0.7 0.2-0.7 0.1 0 0.2 0.1 0.4 0.5l0.3 0.4 0.3 0.2h0c0.2 0 0.3-0.1 0.3-0.6l0-0.3 -0.1-0.4 0-0.2 0.2-0.3 0.2 0.1 0.3 0.3 0.5 0.3 0.4-0.3 -0.3-0.6 -0.2-0.3c-0.2-0.4-0.3-0.5-0.5-0.5l-0.3 0 -0.3 0.1 -0.2 0.1 -0.1-0.1c0-0.2 0.2-0.6 0.4-1 0.2-0.3 0.3-1 0.4-2l0.1-1.2c0.1-0.7 0.2-1 0.3-1l0.1 0.1 0.1 0.4V8.3l0.1 0.7 0.4-0.3 0.3-0.5 0.1-0.7c0-0.6-0.3-0.8-1.1-1.1L63.8 6.3l0-0.2V5.6l-0.1-0.3L63.7 5.1l-0.1-0.3L63.3 4.9c-0.5 0.3-0.7 0.4-0.8 0.6l-0.4 0.4 -0.1-0.1 0.1-0.4 0-0.1c0-0.6-0.3-1.1-0.9-1.5l-0.2 0.2L60.8 4.3l-0.3 0.4L60.2 5.4l0 0.1 0 0.1L60.1 5.8l-0.1 0 -0.2-0.3L59.6 5.2l-0.5-0.3 -0.2-0.2c-0.2 0.5-0.3 0.6-0.3 1.3v0.2l-0.2 0.4 -0.3-0.1 -0.4-0.1c-0.4 0-0.6 0.3-0.6 0.8 0 0.5 0.1 0.8 0.4 1.3l0.6 0.6 0.1-0.6 -0.1-0.4 0-0.2 0.2-0.3c0.1 0 0.2 0.2 0.3 0.6l0.2 1 0.2 1.2 0.3 1c0.2 0.5 0.4 0.8 0.4 0.9l0.3 0.5 -0.1 0.1 -0.2-0.1 -0.3-0.1 -0.2 0c-0.4 0-0.5 0.3-0.5 2.1 0 1.1 0.2 2.5 0.5 3.2l0.5 1.4 0.1 0.6c0 1.9-2.5 4.9-5.2 6.2 -1 0.5-1.4 1-1.4 2.4 0.4-0.2 0.6-0.3 0.9-0.4 0.8-0.2 0.9-0.3 1-0.7l0.1-0.3c0-0.1 0.1-0.2 0.7-0.5l0.4-0.3 0.3-0.3 0.1 0.1 0 0 -0.3 0.7 0 0.2c0 0.5 0.3 1 0.9 1.3l0.1-0.3c0.1-0.4 0.2-0.7 0.3-0.8l0.5-0.7c0.2-0.3 0.2-0.4 0.2-1.1l0-0.8 0-0.2 0.2-0.2 0.2 0.1 0.1 0.5 0.3 0.2c0.2 0 0.6-0.3 0.9-0.9l0.2-0.6 -0.1-0.8 0-0.2 0.2-0.2 0.1 0 0.2 0.6 0.3 0.3c0.4 0 0.8-0.8 0.8-1.7 0-0.5 0.1-0.7 0.3-0.7l0.1 0.1 0.1 0.3 0.2 0.2 0.4-0.3 0.2-0.3 0.1-0.3 -0.2-0.3 -0.3-0.5c0-0.4 0.2-0.8 0.6-1.6 0.4-0.7 0.5-0.8 0.6-0.8l0.2 0.2 -0.1 0.2 -0.1 0.3 0.2 0.2 0.5-0.2 0.7-0.3c0.5-0.2 0.8-0.3 0.9-0.3l0.5-0.1 0.5 0.1 0.6 0.1 0.4-0.4 -0.2-0.4 -0.2-0.4 -0.2-0.2 0-0.1 0.1-0.1c0.2 0 0.6 0.4 1 1 2 3.3 3 4.3 4.5 4.8 1.5 0.5 1.9 0.8 1.9 1.7 0 0.5-0.3 1.1-0.8 1.8 -1 1.4-1.4 2.3-1.4 3.2l0 0.2 0.3-0.1 0.4-0.2 0.6-0.1 0.4-0.5 0-0.1 0-0.6 0-0.1 0.3-0.6 0.2 0.2 0.4 0.9C75.4 27.9 75.6 28.1 76.2 28.3" class="a"/><path d="M55 10.7l0 0.4 0 0.3c0 0.4 0.1 0.6 0.2 0.6l0.6-0.7 0.1-0.7L55.8 10.1l-0.4-0.4C55.2 9.7 55.1 9.9 55 10.7" class="a"/><path d="M53.3 5.9l0.4 0.4c0.5 0.5 0.9 1.6 0.9 2.6l0 0.4 -0.1 1.2 0 1c0 3.4 1 5.7 2.4 5.7 0.4 0 0.8-0.3 1.1-0.8l0.2-0.2 0.1 0.2 0.1 0.6 0.1 0.5 0.1 0.5 0.1 0.5c0 0.3-0.1 0.3-0.7 0.4l-0.7 0.3c-0.4 0.3-0.6 0.4-0.7 0.5l-0.3 0.6 -0.2 0.1c-0.2 0-0.4-0.2-0.6-0.7 -0.3-0.5-0.4-0.7-0.4-0.8l0.2-0.1 0.1 0 0.3 0 0.2 0 0.2 0 0.2-0.2 -0.1-0.1 -1.2-0.5c-0.3-0.1-0.6-0.4-0.8-0.8 -0.3-0.5-0.5-0.9-0.5-1.1l0.2-0.3 0.2 0.1 0.3 0.1 0.1-0.1 0.1-0.1 -0.2-0.3c-1-0.7-1.5-1.5-1.5-2.2l0.1-0.3 0.2 0 0.4 0.1 0.2-0.2 -0.2-0.2c-0.6-0.3-0.8-0.5-1.2-1.4 -0.3-0.7-0.5-1-0.7-1.3l0.8-0.2c0.4 0 0.6 0.2 0.8 0.9 0.2 0.4 0.3 0.7 0.4 0.7l0.1-0.3 -0.1-0.8 -0.1-0.6 -0.1-0.4L53.1 8.9l-0.4-0.8 0.1-0.5 0.2-0.6c0.1-0.4 0.2-0.9 0.2-1.1l0-0.2L53.3 5.9" class="a"/><path d="M56.4 24.5c-0.5-0.1-0.6-0.1-1.2-0.4 -0.4-0.2-0.7-0.3-1-0.3 -0.4 0-0.7 0.1-1.1 0.4l0.2 0.2 0.5 0.4 0.5 0.4 0.4 0.2C55.2 25.3 55.7 25.1 56.4 24.5" class="a"/><path d="M66.3 29.2l0.5-0.7c0.7-0.6 1.1-1.1 1.1-1.4v-0.6l0.2-0.4 0.2 0.1 0.1 0.3 0.2 0.1c0.2 0 0.3-0.1 0.6-0.7l0.2-0.5 -0.1-0.3 -0.2-0.4 -0.1-0.4 0.2-0.3 0.2 0.1 0.2 0.3 0.1 0.1 0.3-0.2 0.2-0.4 0.1-0.2 -0.2-0.2 -0.4-0.2c-0.4-0.2-0.8-0.9-0.8-1.6l0.1-0.3 0.2-0.4 0.1-0.4 -0.3-0.8 -0.3-0.5c-0.1-0.4-0.2-0.5-0.4-0.5l-0.3 0.1 -0.3 0.2 -0.4 0.4 -0.4 0.2c-0.2 0.1-0.4 0.6-0.4 1 0 0.6 0.1 0.9 1 2.4 0.4 0.6 0.5 1.1 0.5 1.5 0 1-1.1 1.9-2.8 2.3 -2.1 0.4-2.5 0.8-2.8 2.1 0.4-0.2 0.5-0.2 1.1-0.2l0.4 0 0.1 0 0.6-0.3 0.9-0.7 0.4-0.2 0.3-0.2 0.1 0 0.1 0.1 -0.2 0.4 -0.4 0.8L66.3 29.2" class="a"/><path d="M63 25.2l0.8 0.7 0.5 0.4 0.4-0.1 0.2-0.1c0.4-0.1 0.6-0.1 0.6-0.3l-0.1-0.2 -0.3-0.3 -0.3-0.3 -0.8-0.3C63.7 24.8 63.4 24.9 63 25.2" class="a"/><path d="M71.4 26.6l0.2 0 0.3 0 0.2 0 0.1 0 0.5-0.1 0.5-0.6 0.1-0.3 -0.4-0.3C72.1 25.3 71.6 25.7 71.4 26.6" class="a"/><path d="M61.8 8.8l0.3 0.4c0.1 0 0.3-0.4 0.5-0.8 0.4-0.6 0.7-1.1 0.7-1.5l-0.1-0.2L63.1 6.7l-0.3 0.3 -0.9 0.5 -0.4 0.4 0 0.2 0.2 0.4L61.8 8.8" class="d"/><path d="M59.5 6.9l-0.3-0.1 -0.2 0.2 0 0.1 0.1 0.4c0.1 0.4 0.3 0.7 0.3 0.7l0.4 0.7 0.6 0.4 0 0L60.6 9l0.1-0.5 0.1-0.5 0-0.1L60.6 7.7 60.2 7.4 59.5 6.9" class="d"/><path d="M61.2 10.1h-0.1l-0.3 0 -0.3-0.2 -0.4-0.1 -0.4 0.4c0 0.2 0.1 0.6 0.3 1.1l0.3 0.8c0.3 0.7 0.6 1 1 1 0.3 0 0.6-0.3 0.8-0.8l0.3-1.2 0.5-0.8 -0.6-0.6 -0.1 0 -0.4 0.3L61.2 10.1" class="d"/><polyline points="61.6 10.8 61.2 10.8 60.9 10.8 60.7 10.9 60.7 11 60.8 11.7 60.9 12.2 61.2 12.6 61.7 12.1 61.8 11.6 61.8 11 61.7 10.8 61.6 10.8 61.6 10.8 " class="a"/><path d="M26.1 65.7c0.2 0.6 0.3 0.8 0.3 1.2l0.1 1.1c0 1.1 0.4 1.6 1.1 1.6l0.6-0.2 0.3-0.3 0.1 0 0.3 0.3 0 0.4c0 0.2 0 0.6 0.1 1.2l0.1 1c0 0.6 0 0.8-0.2 1.3 0.2 0.5 0.3 1.1 0.3 1.6 0 0.6-0.1 0.9-0.3 1.3 0.1 0.4 0.1 0.6 0.1 0.9 0 0.3 0 0.6-0.1 1 -0.1 0.5-0.1 1-0.1 1.2l0 0.1 -0.1 0.2 -0.3-0.2 -0.4-0.3c-0.2 0-0.2 0.1-0.5 0.9 -0.1 0.2-0.3 0.6-0.6 1l-0.5 0.7 -0.2 0.5 -0.2 0.1 0 0c-0.4 0-0.9-0.9-1.4-2.6 -0.1-0.5-0.3-0.7-0.6-0.7l-0.4 0.3 -0.2 0.4 -0.1 0.1c-0.2 0-0.5-0.4-0.7-0.9 -0.2-0.4-0.3-0.8-0.3-1.2 0-0.8 0.6-1.4 2.4-2.4 0.8-0.4 1.1-1 1.1-2 0-0.8-0.2-1.3-0.9-1.8 -0.5-0.4-0.9-0.6-1.1-0.6l-0.4 0.4 0.5 0.5c0.4 0.1 0.6 0.3 0.6 0.5 0 0.2-0.2 0.5-0.4 0.9 -0.3 0.4-0.4 0.6-0.8 0.9 -0.1 0.7-0.5 1.2-1.2 1.7 -0.2 0.4-0.2 0.6-0.5 1l-0.5 0.7 -0.4 0.8c-0.1 0.4-0.1 0.5-0.2 0.5 -0.2 0-0.6-0.4-1-0.9l-0.3-0.9c-0.3 0.2-0.4 0.2-0.9 0.3l-0.7 0.2c-0.4 0.2-0.5 0.3-0.6 0.3l-0.2-0.2 0-0.6c0-0.8 0.3-1.7 0.8-2.3 -0.4-0.4-0.9-0.6-1.3-0.7l-0.2-0.1 0.2-0.5 0.5-0.5c0.4-0.3 1-0.5 1.5-0.5 0.3 0 0.8 0.1 1.5 0.4l0.6 0.1 0.4-0.5c0-0.5-0.2-1.2-0.7-2.4 -0.3-0.8-0.5-1.3-0.5-1.7 0-0.9 0.4-1.8 0.9-2.1l-0.6-0.2 -0.8 0.3 -0.6 0.5 0.2 0.2 0.2 0.4c0 0.6-0.5 1.5-1.3 2 -0.2 0.9-0.6 1.4-1.4 1.8 -0.1 0.5-0.2 0.6-0.6 1.2 -0.7 0.9-0.8 1.2-1 1.8l-0.2 0.4 -0.6-0.4 -0.4-0.5c-0.1-0.2-0.2-0.3-0.3-0.8l-0.4 0.1 -0.4 0 -0.3 0c-0.6 0-1.2 0.1-1.5 0.3l-0.2 0.1c-0.2 0-0.3-0.3-0.3-0.8 0-0.9 0.3-1.7 0.9-2.5l-0.5-0.5 -0.2-0.2 -0.3-0.2 -0.2-0.2c0-0.1 0.4-0.5 0.8-0.8 0.5-0.3 0.9-0.5 1.2-0.5 0.4 0 0.6 0.1 1.2 0.6l0.8 0.5 0.4-0.2 0.1-0.4c0-0.5-0.6-1.3-1.2-1.8 -0.5-0.3-1-0.5-1.5-0.5 -0.7 0-1.3 0.4-1.6 0.9l-0.3 0.6 -0.2 0.2c-0.2 0-0.3-0.1-0.8-0.7l-0.7-0.8 -0.4-0.7 -0.1-0.3 -0.3-0.2c-0.5-0.4-0.9-1.1-1.1-2.1l-0.1-0.3c-0.6-0.8-1-1.7-1-2.6l0.1-0.4c-0.4-0.4-0.4-0.5-0.7-1.4 -0.2-0.7-0.3-1-0.6-1.3L3.3 56.5l0.6-0.3L4.4 56.1l0.5 0L4.9 55.4c0-0.4 0-0.7 0.1-1.2l0.1-0.5 -0.1-0.4 -0.1-0.4 -0.1-0.2 0.2-0.1 0.3 0.1c0.4 0.2 0.8 0.4 1.1 0.7 0.9 0.7 1.6 1.8 1.6 2.4l0 0.2 -0.1 0.4 0.2 0.4 0.3 0.4 0.4 1c0 0.2-0.1 0.3-0.5 0.9 -0.3 0.4-0.4 0.8-0.4 1.2 0 0.5 0.2 1.1 0.5 1.6 0.3 0.5 0.7 0.8 1 0.8 0.6 0 0.8-0.5 0.9-1.9 0-0.7 0.1-1.4 0.2-2l0-0.4 -0.3-0.5 -0.8-0.9c-0.7-0.9-1-1.3-1-1.9 0-0.7 0.5-1.2 1.1-1.2l0.3 0 0-0.2 0.1-0.7c0.2-0.6 0.4-1 0.5-1l0.2 0.1 0.5 0.2 0.5 0.3c0.1-0.4 0.2-0.6 0.4-0.9 0.3-0.4 0.7-0.8 0.8-0.8l0.4 0.3 0.5 0.5 0.3 0.5 0.1 0.2 0.3-0.2 0.4-0.2 0.5-0.2 0.3-0.1c0.1 0 0.1 0.2 0.3 1 0.1 0.6 0.1 0.7 0.2 1.1 0.8 0.1 1.2 0.6 1.2 1.5 0 0.8-0.4 1.7-1.3 2.6l-0.3 0.6c0 2.3 0.8 3 3.6 3.3 1.8 0.2 2.3 0.3 4.4 0.9 1.1 0.3 1.7 0.5 2.2 0.5 0.5 0 0.8-0.2 0.8-0.5 0-0.5-0.3-0.6-2.4-1.1 -4.8-1-6.6-2.6-6.6-5.8 0-2.2 1.7-3.9 3.9-3.9 1 0 1.9 0.3 3.3 1.1 1.3 0.8 1.6 0.9 1.9 0.9 0.3 0 0.5-0.2 0.5-0.8l0.3-0.5 0.8 0.5c0.4 0.5 0.6 0.8 0.6 1.5 0 0.9-0.5 1.5-1.5 1.8l-0.2 0.3c-0.5 0.6-1 0.8-1.8 0.8 -0.7 0-1.7-0.3-2.3-0.7l-1.2-0.9c-0.5-0.4-0.9-0.5-1.3-0.5 -0.5 0-0.8 0.3-0.8 0.8 0 0.5 0.3 0.9 0.9 1.1l1.2 0.4c0.4 0.1 0.6 0.2 1.1 0.5l0.6-0.1c0.7 0 1.5 0.2 2.2 0.5l0.5 0.2 0.6 0.2c1.5 0.4 2.7 2 2.7 3.6 0 1.8-1.2 2.9-3.1 2.9L26.1 65.7"/><path d="M25.6 81l0.2-0.3 0.4-0.4c0.3-0.3 0.5-0.8 0.5-1.3l-0.1-0.8 -0.1-0.5 0.2-0.3 0.2 0.1 0.4 0.4 0.6 0.4 0-0.4 0-0.4c0-0.6-0.2-1.3-0.6-1.7l-0.3-0.5 0.1-0.2 0.1 0.1 0.4 0.3 0.2-0.7c0-0.5-0.2-1-0.5-1.4l-0.3-0.4 -0.1-0.1 0.2-0.2 0.3 0.1 0.2 0.1c0.2 0 0.3-0.3 0.3-1l0-0.3 0-0.5c0-0.5-0.1-0.6-0.3-0.6h-0.2c-1.3 0-1.8-0.8-2.2-2.9 -0.2-1.5-0.8-2.6-1.5-2.9 -0.4-0.1-0.6-0.2-0.6-0.3l0.2-0.1 0.5 0.1c1 0.4 1.9 0.6 2.6 0.6 1.2 0 2.2-0.9 2.2-2.1 0-0.9-0.4-1.8-1.2-2.5l-0.6-0.4 -0.1 0 -0.1 0 0.1 0.4 0.1 0.3 0 0.1 -0.1 0.1 -0.2-0.1 -0.5-0.7c-0.4-0.5-1.2-1-1.8-1l-0.3 0.2 0.2 0.3 0.2 0.4 0 0.1 -0.1 0.1 0 0c-0.1 0-0.2-0.1-0.7-0.7 -0.5-0.5-1.4-1-1.9-1l-0.2 0.1 -0.1 0.1 0.2 0.3 0.3 0.4 -0.1 0.1c-0.1 0-0.5-0.2-1.1-0.7 -1-0.8-1.4-1.5-1.4-2.3 0-1 0.7-1.8 1.6-1.8 0.5 0 1.2 0.3 1.7 0.6l1.3 1c0.6 0.4 1.3 0.7 2 0.7l0.4-0.1 0.2-0.2 -0.2-0.1c-0.5-0.1-0.8-0.3-1.1-0.5l-1.3-1c-0.5-0.4-0.8-0.6-1-0.7 -0.7-0.4-0.8-0.4-0.8-0.5l0.1-0.1 0.2 0.1 0.7 0.3c0.2 0.1 0.6 0.3 1.1 0.6 1.4 0.9 2.1 1.2 2.9 1.2 0.8 0 1.3-0.5 1.3-1.3l-0.1-0.4 -0.1-0.3 -0.2-0.1 -0.1 0.1 -0.1 0.5 -0.1 0.2 -0.2 0.3 -0.5 0.2c-0.4 0-0.8-0.2-2-1 -1.2-0.8-2.3-1.2-3.2-1.2 -1.9 0-3.3 1.5-3.3 3.3 0 2.6 1.6 3.7 6.5 4.8 1.9 0.4 2.7 1 2.7 1.8 0 0.8-0.6 1.2-1.6 1.2l-0.7-0.1c-0.2 0-1.1-0.3-2.7-0.7 -1.1-0.3-2.3-0.5-3.4-0.5 -1.9 0-3.2 0.6-4.1 1.8l-0.3 0.2 -0.2-0.1 -0.4-0.3 -0.9-0.4 -0.5 0.2 -0.3 0.2c-0.1 0-0.4-0.3-0.6-0.7 -0.3-0.6-0.4-1.2-0.4-1.8l0.2-0.4 0.2 0.2 0.2 0.7c0.1 0.4 0.3 0.7 0.5 0.7l0.4-0.3 0.2-0.4c0.2-0.5 0.2-0.5 0.3-0.5 0.2 0 0.2 0.1 0.3 0.6l0.2 0.4 0.3 0.5 0.3 0.1c0.2 0 0.4-0.4 0.4-0.8L15.2 62.7l0-0.5 0.1-0.2 0.2 0.1 0.4 0.4 0.4 0.1 0.3-0.1 0.1-0.2 -0.4-0.5c-0.1-0.1-0.3-0.5-0.5-1l-0.2-0.3 -0.2 0.1 -0.3 0.1 -0.2 0.1 -0.1 0 -0.2-0.2 0.5-0.6 0.3-0.7c0-0.4 0.1-0.8 0.2-0.8l0.1-0.9c0-0.5 0.2-1.3 0.4-1.8l0.1-0.2 0.2 0.4 0 0.1 0 0.3 0.2 0.5 0.4-0.4 0.2-0.6 0.1-0.5c0-0.5-0.3-0.9-0.7-0.9l-0.2 0 -0.2 0.1 -0.3-0.3 0-0.4 0-0.5 -0.1-0.5 0-0.3 -0.2 0.1 -0.3 0.2 -0.4 0.3 -0.3 0.3 -0.2 0.1c-0.2 0-0.2-0.1-0.2-0.5v-0.1c0-0.3-0.1-0.6-0.7-1.2l-0.1-0.2 -0.1 0.2 -0.3 0.5 -0.3 0.7 0 0.5 -0.1 0.2 -0.2-0.2c-0.4-0.4-0.5-0.5-1.1-0.7l-0.1 0.2 -0.2 0.5 0 0.5v0.2l0 0.2 -0.1 0.2 0 0 -0.2-0.1 -0.3-0.1c-0.5 0-0.8 0.3-0.8 0.7 0 0.3 0.1 0.5 0.6 1.3l0.6 0.6 0.1-0.4 0-0.3 -0.1-0.4 0.1-0.2c0.2 0 0.5 0.7 0.6 1.6l0.1 1 0.3 1c0.2 0.5 0.5 0.8 0.7 1l0.4 0.4 -0.1 0.2 -0.5-0.2 -0.2 0c-0.5 0-0.7 0.3-0.7 1.2 0 1.1 0.7 2.6 1.5 3.3l1.2 1c0.6 0.5 1.1 1.3 1.1 1.9 0 0.8-0.8 1.5-2.2 2l-0.8 0.3c-0.7 0.2-0.9 0.7-1.2 1.9l0.7-0.1 0.1 0 0.4 0 0.6-0.5v-0.2l0.2-0.2 0.4-0.2 0.3-0.2 0.1-0.1 0.1 0.2 -0.1 0.2 -0.1 0.9c0 0.6 0.1 1 0.4 1.4l0.1-0.3 0.4-0.7c0.4-0.5 0.7-1.2 0.7-1.6l0-0.1 -0.1-0.6 0.1-0.3 0.2-0.1 0.3 0.3 0.2 0.2 0.4-0.5 0.1-0.5 -0.1-0.3 -0.1-0.3 0.1-0.2 0.1-0.1 0.2 0.1 0.2 0.2 0.2 0.1 0.4-0.3 0.4-0.7 -0.2-0.2c-0.5-0.4-0.9-0.9-0.9-1.4l0.1-0.4 0.3-0.7 0.2-0.5 0.1 0 0.1 0.2 -0.1 0.3 -0.1 0.5 0.3 0.3 0.4-0.1c0.8-0.3 1.4-0.5 1.8-0.5l0.9 0.3 0.2 0.1 0.2-0.1 0.1-0.1 -0.2-0.3 -0.2-0.4 0.1-0.1c0.4 0 1 1.3 1.6 3.3 0.5 1.6 0.6 1.8 2.1 2.6 1.3 0.7 1.8 1.5 1.8 2.6 0 1.2-0.3 2.6-1 4.6 -0.2 0.6-0.3 1-0.3 1.4 0 0.3 0.1 0.5 0.3 1.2l0.2 0.6L25.6 81" class="a"/><path d="M19.6 77.3c0.2-0.4 0.2-0.4 0.5-0.9 0.4-0.6 0.6-1 0.6-1.3V74.8c0-0.4 0.1-0.6 0.2-0.6l0.1 0.1 0.1 0.2 0.2 0.1 0.3-0.2 0.3-0.9 0-0.3 0-0.3 0.2-0.2 0.2 0.2 0.2 0.2 0.2-0.2 0.2-0.3 0.2-0.2 0-0.1 -0.2-0.2c-0.5-0.3-0.7-0.9-0.7-1.8 0-0.7-0.1-1.2-0.1-1.4 0 0-0.2-0.4-0.5-1.1l-0.3-0.9 -0.3-0.3c-0.7 0-1.2 0.6-1.2 1.4 0 0.5 0.2 1.2 0.5 2.1 0.5 1.2 0.6 1.7 0.6 2.1 0 0.9-0.4 1.4-1.7 1.8 -1.5 0.5-2.2 1.3-2.4 2.7l0.3-0.1 0.4-0.1 0.4-0.1 0.7-0.5 0.1-0.4 0.2-0.2 0.2-0.1 0.2-0.1 0.1 0.1 -0.1 0.3 -0.1 0.6C19.2 76.6 19.3 76.9 19.6 77.3" class="a"/><path d="M5.8 53.5l0.1 0.3 -0.1 0.7 0 0.5c0 0.5 0.1 1 0.2 1.4l0.2 0.6 0 0.1 -0.1 0.2 -0.3-0.2 -1-0.4 -0.4 0.1 0.1 0.3 0.4 1 0.5 0.8 0.6 0.4 0.2 0.2 0.1 0.2 -0.1 0.1 -0.5 0 -0.1 0.1c0 0.1 0.1 0.4 0.2 0.8l0.3 0.7 0.4 0.4 0.5 0.3 0.2 0.3 -0.1 0.1L6.7 62.5l-0.1 0.2c0 0.2 0.2 0.5 0.5 1 0.4 0.5 0.7 0.7 1.1 0.7h0.4l0.3 0.2 -0.2 0.2 -0.5 0.3 0.1 0.3 0.2 0.3 0.5 0.4 0.4-0.2 0.8-0.6c0.9-0.2 1.1-0.3 1.1-0.5l-0.1-0.3c-0.3-0.5-0.4-0.8-0.4-1.3l-0.2-0.5 -0.2 0.2 -0.9 0.5c-0.9 0-2-1.4-2.5-3.2 -0.1-0.4-0.2-0.9-0.2-1.4 0-0.5 0.1-1 0.2-1.6 0.2-0.8 0.3-1.2 0.3-1.3l0-0.3C7.3 55 6.7 54.2 5.8 53.5" class="a"/><path d="M7.7 57.1c-0.2 0.4-0.4 1.2-0.4 1.7l0.2 0.5 0.1-0.1 0.3-0.5 0.2-0.3 0.2-0.4L7.7 57.1" class="a"/><path d="M10.5 68.7l0.3 0.3c0.5 0.5 0.6 0.6 0.8 0.6l1-0.3 0.2-0.2 -0.3-0.3 -0.3-0.3 -0.7-0.4C11.3 68.3 11 68.4 10.5 68.7" class="a"/><path d="M16.5 73.4l0.5 0.3 0.4 0.3 0.4 0.1 0.3-0.1 0.5-0.2 0.5-0.2 0.2-0.2 -0.3-0.1L18.7 73.1c-0.6-0.3-0.7-0.3-1-0.3C17.3 72.8 16.8 73 16.5 73.4" class="a"/><path d="M23 78.6c0.2-0.4 0.3-0.5 0.9-0.5 0.7 0 1.3-1.2 1.3-2l-0.1-0.1 -0.2 0.1 -0.4 0.2 -0.7 0.3c-0.5 0.2-0.9 0.9-0.9 1.4L23 78.6" class="a"/><path d="M11.9 56.2l0.3 0.4 0.6 0.4 0.2-0.2 0.1-0.4 0-0.4c0-0.3-0.1-0.5-0.9-0.6l-0.4-0.1 -0.3-0.2 -0.1 0.1 0 0.1 0.1 0.4L11.9 56.2" class="d"/><polyline points="15.2 55 14.8 55.3 14.3 55.4 13.8 55.8 13.8 56.3 14.1 56.9 14.2 56.9 14.3 56.8 14.6 56.2 15.2 55.6 15.4 55.1 15.4 55.1 15.3 55 15.2 55 " class="d"/><path d="M14 57.9l0.4-0.2 0.2-0.1 0.3 0.4c0 0.3-0.2 0.7-0.5 1.3 -0.3 0.6-0.6 1-0.9 1 -0.4 0-0.9-0.6-1.4-1.6L11.9 58.1l0.4-0.5 0.3 0.1 0.2 0.2 0.7 0.2L14 57.9" class="d"/><path d="M13.4 58.6l-0.3-0.1 0 0 -0.2 0.3 0.5 1.1 0.2 0.1c0.2 0 0.3-0.3 0.4-0.8l0.1-0.4 0-0.1 -0.2-0.2 -0.1 0" class="a"/><path d="M70.9 65.3c0.4 0.6 1.1 1 1.6 1l0.7-0.1 0.3-0.1 0.2 0.2 -0.1 0.5c-0.4 2.2-1.1 1.5-1 2.1v0.1c0 0.6-0.2 1-0.7 1.3l-0.2 0.1 -0.1 0.2c-0.1 0.5-0.2 0.8-0.3 0.9l-0.5 0.7c-0.3 0.4-0.5 0.7-0.6 1.1l-0.4 0.3 -0.5-0.7 -0.1 0.2 -0.3 0.2 -0.5 0.3 -0.4 0.3L67.7 74.3l-0.1 0.1c-0.1 0-0.3-0.2-0.4-0.6l-0.3-0.8 -0.1-0.8c0-0.4 0-0.6 0.2-0.9 -0.5 0.1-0.7 0.1-0.9 0.2l-0.2 0.1 -0.1-0.2 0.1-0.4 0.3-0.9c0.3-0.7 1.1-1.3 1.8-1.3l0.7 0.1 0.4 0.1 0.5-0.5 -0.2-0.3c0 0-0.4-0.1-0.9-0.3 -0.4-0.1-0.6-0.3-1.1-0.9 -0.4-0.4-0.5-0.5-0.6-0.5l-0.2 0.2 0 0.3 0 0.2c0 0.7-0.2 1.4-0.7 2.3l-0.7 1.3c-0.3 0.6-0.5 1.1-0.5 1.6 0 0.5 0.2 1 0.5 1.1l0.4 0.1 0.1 0.1 0.1 0.1 -0.1 0.2 -0.5 0.6c-0.4 0.6-0.7 0.8-1.3 1 -0.3 0.8-0.8 1.2-1.7 1.5l-0.1 0.2c-0.3 0.5-1 1-1.4 1h-0.1c-0.1 0.5-0.4 1-0.9 1.3l-0.6 0.4 -0.1 0.2 -0.4 0.4c-0.3 0-0.5-0.3-0.7-0.7l-0.2 0.2 -0.5 0.3c-0.1 0.1-0.4 0.1-0.9 0.3 -0.6 0.2-1.2 0.4-1.3 0.6l-0.2 0.4 -0.1 0 -0.3-0.4c-0.1-0.5-0.2-1.1-0.2-1.4 0-0.9 0.3-1.5 1.2-2.4l0-0.2c0-1.4 1.1-2.4 2.7-2.4l0.3 0 0.9 0.1 0.1 0c0.5 0 0.9-0.2 1.4-0.6 0.6-0.5 0.8-0.8 0.8-1.4 0-0.2-0.1-0.4-0.2-1 -0.1-0.4-0.2-0.8-0.2-1.2 0-1.1 0.8-2.4 1.8-3.1l0.5-0.6 -0.1-0.1 -0.3 0.2 -0.6 0.4 -0.4 0.2 -0.5 0.2 -0.2 0.2 0.1 0.2 0.1 0.2 -0.1 0.3 -0.4 0.6c-0.4 0.6-0.6 0.8-1.1 1 -0.3 0.8-0.7 1.3-1.3 1.4 -0.5 1-0.9 1.3-1.8 1.4 -0.1 0.4-0.3 0.7-0.8 1.2l-0.3 0.4 -0.3 0.4 -0.6-0.4 -0.2-0.3 -0.2-0.4 -0.3-0.2 -0.2 0 -0.6 0.1 -1 0.6 -0.3 0.5 -0.1 0.1c-0.2 0-0.4-0.5-0.4-1.4 0-0.7 0.1-1.2 0.4-1.6l0.7-1 0.2-0.4 -0.1-0.3 -0.4-0.3 -0.5-0.1 -0.1-0.1 0.1-0.2 0.6-0.6c0.6-0.4 1.1-0.5 1.5-0.5 0.4 0 0.9 0.2 1.3 0.4l0.7 0.5 0.4 0.1c0.3 0 0.6-0.2 0.8-0.7 0.2-0.4 0.3-0.8 0.3-1.2 0-1-0.7-1.7-1.7-1.7 -0.4 0-0.9 0.2-1.3 0.5l-0.3 0.3 -0.2 0.5 -0.2 0.2c-0.1 0-0.4-0.4-0.7-0.8l-0.4-0.9c-0.2-0.5-0.2-0.9-0.2-1.3l0-0.7c-0.3-0.5-0.5-0.9-0.5-1.6 0-0.2 0-0.4 0.2-0.9 -0.2-0.4-0.3-0.6-0.3-1.1l0-0.3 0.1-0.4 0.1-0.3c-0.2-0.3-0.3-0.5-0.6-1.7 -0.1-0.6-0.2-0.9-0.3-1.1l-0.1-0.2c0-0.1 0.4-0.3 0.8-0.3l0.4 0 -0.1-0.5 0.2-1c0.1-0.4 0.2-0.5 0.2-0.6l-0.1-0.8 -0.2-0.5 -0.1-0.3 0.1-0.1c0.5 0 1.5 0.5 2.2 1.3 0.8 0.7 1 1.3 1 2.3l0 0.6c0.7 0.6 1 1.1 1 1.7 0 0.4-0.1 0.7-0.5 1.1 -0.7 0.7-0.9 1.1-0.9 1.9 0 1.4 0.4 2.1 1.2 2.1 0.7 0 1.2-0.7 1.3-1.8l0.1-1 0.1-0.9 0.1-0.7c0-0.3-0.2-0.8-0.9-1.6 -0.7-0.8-1-1.3-1-2 0-0.8 0.5-1.4 1.3-1.4l0.5 0.1c0-0.4 0-0.5 0.3-1.2 0.2-0.5 0.4-0.8 0.5-0.8l0.2 0.1 0.3 0.3 0.3 0.2 0.2 0.2c0.2-0.6 0.3-0.8 0.8-1.3l0.6-0.5 0.2 0.1 0.3 0.4 0.4 0.5c0.2 0.2 0.2 0.3 0.3 0.8l0.3-0.2 0.4-0.2 0.3-0.2 0.2-0.1 0.1 0.2 0.2 0.6 0.3 0.7 0.1 0.7L63.7 54.3l0.2 0c0.5 0 0.9 0.6 0.9 1.3 0 0.9-0.7 2.1-1.7 2.7l-0.1 0.7c0 2 0.5 2.5 3.7 2.9 0.8 0.1 1.5 0.3 2.1 0.4 0.1 0 0.8 0.3 2 0.7 0.7 0.2 1.2 0.3 1.5 0.3l0.6-0.3c0-0.4-0.5-0.7-2.1-1.3l-2.2-0.9c-2.3-0.9-3.4-2.3-3.4-4.3 0-2.4 1.8-4.2 4.2-4.2 0.9 0 1.8 0.2 3 0.6 1.6 0.6 1.7 0.6 1.9 0.6 0.3 0 0.5-0.2 0.5-0.7 0-0.4 0.1-0.5 0.4-0.5 0.3 0 0.7 0.3 0.9 0.8 0.2 0.4 0.3 0.9 0.3 1.3 0 0.8-0.4 1.4-1.3 1.6 -0.5 0.7-1.2 1.1-2.1 1.1 -1 0-1.5-0.2-3.3-1.3 -0.6-0.4-0.9-0.5-1.3-0.5 -0.6 0-1.1 0.4-1.1 0.9 0 0.5 0.4 0.8 1.2 1 0.5 0.1 0.6 0.2 0.9 0.4l0.4-0.1c0.8 0 1.9 0.5 2.7 1.2 1.6 0.5 3 2.2 3 3.6 0 1.6-1.4 3-2.9 3C72.4 65.6 71.6 65.5 70.9 65.3"/><path d="M69.9 72.4l0.1-0.3 0.1-0.4 0.3-0.4c0.3-0.3 0.4-0.8 0.4-1.3l-0.1-0.5 -0.1-0.2 0.1-0.1 0.1-0.1 0 0 0.3 0.2 0.3 0.2 0.3-0.5 0.1-0.3 -0.2-0.7 -0.1-0.3 0.1-0.2 0.3 0.2 0.2 0.1c0.2 0 0.3-0.2 0.4-0.6l0.1-0.4 -0.1-0.1 -0.1 0 -0.3 0c-0.5 0-1.1-0.3-1.4-0.7L69.9 65.3l-0.7-0.9 -0.6-0.4 -0.2-0.2 0.2-0.2c0.1 0 0.6 0.2 1.3 0.5 0.7 0.3 1.9 0.6 2.6 0.6 1.2 0 2.2-1 2.2-2.2 0-0.7-0.3-1.3-1-2.1l-0.5-0.3 -0.1 0.2 0.1 0.3 0 0.2 -0.1 0.2c-0.2 0-0.3-0.3-0.5-0.7 -0.2-0.6-0.5-0.9-1.3-1.3l-0.8-0.3 -0.1 0.1 0.1 0.3 0.2 0.5v0l-0.1 0.2c-0.2 0-0.2 0-0.6-0.6 -0.2-0.3-0.7-0.7-1.2-0.9l-0.4-0.1h0l-0.2 0.1 0.1 0.2 0 0.1 -0.1 0.1c-0.2 0-0.6-0.4-1-0.8 -0.4-0.5-0.7-1.1-0.7-1.5 0-1 0.9-1.9 2-1.9l0.7 0.1 0.9 0.5 1.1 0.7c0.6 0.4 1.4 0.7 1.9 0.7 0.2 0 0.3 0 0.8-0.2l0.4-0.3 0 0 -0.1-0.1 -0.6 0c-0.3 0-1-0.4-1.6-0.7l-1.2-0.8 -1.1-0.4 -0.1-0.1 0.1-0.1 0.3 0.1 1 0.3c0.2 0.1 0.6 0.3 1.2 0.5 1.1 0.6 1.8 0.8 2.3 0.8 0.6 0 1-0.4 1-1l-0.1-0.7 -0.2-0.3 -0.1-0.1 -0.1 0.2 0 0.2 0 0.1c0 0.5-0.2 0.6-0.7 0.6 -0.4 0-1-0.2-2.3-0.7 -1.2-0.5-2-0.7-2.8-0.7 -1.9 0-3.6 1.6-3.6 3.4 0 1.6 1 2.8 3.1 3.6l2.2 0.9c1.8 0.7 2.5 1.3 2.5 2 0 0.6-0.5 1-1.4 1 -0.4 0-0.8-0.1-1.7-0.4 -2-0.7-3.4-0.9-4.6-0.9 -1.9 0-3.3 0.5-4.4 1.7l-0.4 0.2 -0.4-0.1 -0.6-0.2 -0.6 0.3L59.6 64.9l-0.2 0.2 -0.7-0.7 -0.3-0.7 -0.1-0.7 0-0.5 0.1-0.5 0.1-0.4 0.1-0.1 0.2 0.4 0 0.2 0 0.1c0 0.7 0.3 1.4 0.6 1.4 0.3 0 0.5-0.5 0.7-1.3l0.2-0.3c0.1 0 0.2 0.1 0.2 0.5l0.4 0.8 0.3 0.2c0.2 0 0.3-0.3 0.5-1.1l0.2-0.5 0.1 0.1 0.2 0.3 0.3 0.3 0.3 0.1 0.2-0.1 0.2-0.2 -0.2-0.2c-0.2-0.2-0.3-0.4-0.5-0.9l-0.2-0.6 -0.1-0.2 -0.1 0 -0.2 0 -0.5 0.2L61.3 60.7l-0.1-0.1 0.2-0.3c0.7-0.5 1-1.4 1.2-2.7 0.1-0.8 0.2-1.1 0.5-1.5l0.2-0.2 0.2 0.2 -0.1 0.4 -0.1 0.3 0 0.1 0.1 0.2 0.3-0.1 0.3-0.4 0.3-1.1 -0.2-0.6 -0.4-0.3 -0.2 0 -0.2 0 -0.2-0.2 0-0.2 0-0.3 -0.2-0.6 -0.1-0.3 -0.1-0.3 -0.2 0.1 -0.4 0.2 -0.3 0.3c-0.4 0.4-0.4 0.5-0.5 0.5l-0.1-0.1 0-0.1 0.1-0.5c0-0.4-0.3-1.1-0.7-1.5 -0.5 0.5-0.8 1.1-0.8 1.6v0.3l-0.1 0.2h0l-0.2-0.1 -0.3-0.4 -0.4-0.3 -0.2-0.2 -0.1 0.2c-0.3 0.5-0.3 0.8-0.4 1.2l-0.1 0.4 -0.2-0.1c-0.4-0.2-0.4-0.2-0.6-0.2 -0.5 0-0.8 0.3-0.8 0.8l0.3 0.9c0.2 0.4 0.6 0.8 0.7 0.8l0.1-0.2V56.7l0-0.4 -0.1-0.3 0 0 0.1-0.1c0.2 0 0.4 0.7 0.6 2 0.1 1.2 0.5 2 1 2.5l0.2 0.3 -0.1 0.1 -0.3-0.1 -0.3-0.1 -0.6 0.6 -0.2 1.5 -0.2 2.1c0 0.4 0 0.9 0.2 1.5 0.1 0.6 0.2 1 0.2 1.2 0 1.5-1 2.8-2.5 3.2l-1.6 0.5c-1 0.3-1.5 1-1.7 2.2 0.3-0.2 0.3-0.2 0.7-0.3l0.5-0.1 0.4-0.1 0.3-0.3 0.4-0.5 0.4-0.3 0.1 0.1 -0.2 0.4 -0.2 0.7c0 0.3 0.1 0.5 0.4 1l0.1-0.3 0.4-0.5c0.4-0.5 0.6-0.9 0.6-1.2 0-0.4 0-0.5 0.1-0.5l0.1 0.2 0.1 0.2 0.2 0.1 0.2-0.1 0.4-0.4 0.3-0.5 0.1-0.5 0-0.3 0.1-0.2 0.3 0.3 0.2 0.1h0l0.2-0.1 0.5-1 0-0.5 -0.1-0.4 0 0 0.1-0.1 0.4 0.5 0.2 0.3 0.5-0.4 0.2-0.3 0.1-0.3 -0.1-0.3 -0.2-0.3 -0.1-0.3c0-0.3 0.1-0.7 0.4-1.2l0.3-0.6 0.1-0.2 0.1 0.1 0 0.3v0.4l0.2 0.1 0.3-0.1 0.6-0.2 0.6-0.3c1-0.6 1.3-0.7 1.8-0.7 0.3 0 0.7 0.1 1.2 0.4l0.3 0.1 0.2-0.1 0.1-0.2 -0.1-0.3L66 64.4l0.1-0.1 0.2 0.1c0.1 0.1 0.3 0.5 0.6 1 0.5 0.9 1.1 1.4 1.6 1.6l1.1 0.3c0.4 0.1 0.4 0.2 0.4 0.7 0 0.8-0.4 1.5-1 1.9l-0.9 0.6c-0.3 0.2-0.6 0.8-0.6 1.3 0 0.3 0.1 0.9 0.2 1.3l0.2-0.2 0.4-0.3 0.4-0.4 0.2-0.6 0.2-0.5 0.3-0.4 0.1 0.4 0 0.1v0.1C69.6 71.7 69.6 71.9 69.9 72.4" class="a"/><path d="M54.7 79.8c0-1.2 0.4-1.8 2.2-2.7 3.5-1.8 5.4-3.4 5.4-4.6 0-0.3-0.1-0.6-0.3-1.4 -0.1-0.5-0.2-0.9-0.2-1.1 0-0.6 0.5-1.4 1.1-2l0.5-0.4 0.5-0.8 0-0.1 0-0.2 0.4-0.4 0.2 0 0.2-0.1 0.2 0.1 0.1 0.2 0.2 0.2 0.2 0.1 0.2-0.1 0.3-0.1 0.2 0.2c0 0.5-0.3 1.3-0.9 2.1 -1 1.3-1.3 2.1-1.3 2.9 0 0.7 0.2 1.3 0.6 1.7l0.1 0.2 -0.2 0.3 -0.2 0.2 -0.5 0.4 -0.2-0.2 -0.1-0.3 -0.1-0.1 -0.1 0.1 -0.1 0.3v0.4l-0.2 0.5 -0.4 0.4 -0.2 0.1 -0.2-0.2 -0.2-0.5 -0.1-0.1 -0.2 0.4c-0.1 0.6-0.2 0.9-0.3 1.1l-0.4 0.3 -0.3 0.2 -0.2-0.1 -0.2-0.4 -0.1-0.1c-0.1 0-0.2 0.2-0.2 0.6 -0.1 0.9-0.3 1.3-0.8 1.7 -0.4 0.3-0.5 0.4-0.6 0.7 -0.2-0.3-0.3-0.6-0.3-1l0.1-0.5 0.2-0.4 -0.1-0.1 -0.1 0.1 -0.3 0.3c-0.5 0.3-0.5 0.4-0.6 0.9 -0.2 0.7-0.5 1-1.2 1.2 -0.9 0.2-0.9 0.2-1.2 0.5L54.7 79.8" class="a"/><path d="M53 53.2v0.3l0 0.4 -0.1 0.4 -0.1 0.6c0 0.5 0.1 0.7 0.4 1.2l0.3 0.9 -0.1 0.2 -0.1-0.1 -0.2-0.3c-0.2-0.2-0.3-0.3-0.7-0.3l-0.4 0c0.2 0.4 0.2 0.6 0.3 0.9 0.2 0.8 0.2 0.9 0.7 1.3 0.5 0.4 0.5 0.5 0.5 0.6l-0.2 0.2 -0.2 0 -0.1 0 -0.3 0.5 0.2 0.7 0.2 0.3 0.3 0.3 0.1 0.3 -0.2 0.2 -0.2-0.1 -0.2 0 -0.2 0.2c0.1 1.1 0.3 1.7 1.4 2.1l0.1 0.2 -0.2 0.2 -0.3-0.1 -0.3 0 -0.3 0.2 0.1 0.4 0.1 0.4c0.1 0.4 0.2 0.7 0.4 0.7l0.2-0.1c0.4-0.3 1.1-0.5 1.6-0.5 0.5 0 1 0.1 1.2 0.1l0.2 0.1 0.1-0.3 0.1-0.5 0.1-0.8 0.1-0.6v-0.3l-0.2 0.2c-0.4 0.4-0.7 0.5-1.2 0.5 -1.2 0-1.9-1.3-1.9-3.7 0-1 0.1-2.3 0.4-3.9l0.1-0.7C54.5 54.6 53.9 53.8 53 53.2" class="a"/><polyline points="54.9 57.5 54.9 57.9 54.8 58.3 54.8 58.7 54.8 59 55 58.7 55.2 58.5 55.6 57.7 55.5 57.4 55.1 57 54.9 57.5 " class="a"/><path d="M52.5 69.5l0.6 0.5c0.4 0.4 0.6 0.5 1 0.5l0.4-0.1 0.3-0.1 0.3-0.1 0.2-0.1 -0.5-0.4 -0.6-0.4 -0.6-0.2L52.5 69.5" class="a"/><path d="M56 76.7c0-0.8 0.8-1.5 1.8-1.5 0.5 0 0.8 0.1 0.8 0.3 0 0.1-0.2 0.3-0.7 0.6 0 0-0.3 0.2-0.7 0.4 -0.5 0.3-0.7 0.4-1.1 0.6L56 76.7" class="a"/><path d="M66.4 70.5l0.7-0.2 0.5 0 0.3-0.2 0.4-0.3c0.5-0.4 0.5-0.4 0.5-0.5 0-0.1-0.2-0.2-0.6-0.2C67.3 69.2 66.8 69.6 66.4 70.5" class="a"/><path d="M58.7 54.8l0.4 0.2 0.5 0.3c0.4 0.2 0.5 0.2 0.5 0.4l-0.1 0.3 -0.1 0.4 -0.4 0.4c-0.2 0-0.4-0.3-0.6-0.8l-0.4-1L58.5 54.9l0.1-0.1" class="d"/><polyline points="62.1 55.1 61.5 55.4 61 55.5 60.8 55.8 60.8 55.8 60.8 56.3 60.8 56.7 61.1 57 61.1 57 61.3 56.9 61.6 56.3 62.1 55.7 62.4 55.3 62.5 55.1 62.3 55 62.1 55.1 " class="d"/><path d="M59.5 57.5l0.4 0.3 0.3 0.1 0.6-0.2 0.3-0.2 0.2-0.1 0.4 0.5c0 0.4-0.3 0.8-0.7 1.3l-0.3 0.6 -0.6 0.4c-0.3 0-0.5-0.2-0.9-1.1 -0.3-0.7-0.5-1-0.5-1.4l0.3-0.5L59.5 57.5" class="d"/><path d="M59.9 58.9l0 0.5 0.4 0.4c0.2 0 0.4-0.4 0.5-0.9l0.1-0.4 -0.3-0.2 -0.1 0h-0.2l-0.1 0 -0.2 0.5" class="a"/><path d="M30.9 47.2h2.5v5.2h3v-5.1h7.5v5.1h3v-5.1h2.5V33.9h-2.9l-0.1-0.2c-0.3-0.5-0.8-0.8-1.4-0.8 -0.6 0-1 0.3-1.4 0.9h-2.1c-0.2-0.5-0.8-0.9-1.4-0.9 -0.7 0-1.2 0.3-1.5 0.9h-2.2c-0.4-0.7-0.8-0.9-1.4-0.9 -0.7 0-1.1 0.3-1.4 0.9h-2.7V47.2"/><rect x="32" y="35" width="16.4" height="11.2" class="c"/><path d="M33.7 37.6c-0.4 0-0.8 0.4-0.8 0.8 0 0.4 0.4 0.8 0.8 0.8 0.4 0 0.8-0.3 0.8-0.8C34.4 38 34.1 37.6 33.7 37.6" class="a"/><path d="M33.7 37.7l-0.7 0.7 0.7 0.7 0.7-0.7L33.7 37.7M33.7 39.3c-0.5 0-0.9-0.4-0.9-0.9 0-0.5 0.4-0.9 0.9-0.9 0.5 0 0.9 0.4 0.9 0.9C34.6 38.9 34.2 39.3 33.7 39.3"/><path d="M46.5 37.6c-0.4 0-0.8 0.4-0.8 0.8 0 0.4 0.3 0.8 0.8 0.8 0.4 0 0.8-0.3 0.8-0.8C47.3 38 47 37.6 46.5 37.6" class="a"/><path d="M46.5 37.7l-0.7 0.7 0.7 0.7 0.7-0.7L46.5 37.7M46.5 39.3c-0.5 0-0.9-0.4-0.9-0.9 0-0.5 0.4-0.9 0.9-0.9 0.5 0 0.9 0.4 0.9 0.9C47.4 38.9 47 39.3 46.5 39.3"/><path d="M33.7 43.7c-0.4 0-0.8 0.4-0.8 0.8 0 0.4 0.4 0.8 0.8 0.8 0.4 0 0.8-0.3 0.8-0.8C34.4 44.1 34.1 43.7 33.7 43.7" class="a"/><path d="M33.7 43.8l-0.7 0.7c0 0.4 0.3 0.7 0.7 0.7l0.6-0.7L33.7 43.8M33.7 45.4c-0.5 0-0.9-0.4-0.9-0.9 0-0.5 0.4-0.9 0.9-0.9 0.5 0 0.9 0.4 0.9 0.9C34.6 45 34.2 45.4 33.7 45.4"/><path d="M46.5 43.7c-0.4 0-0.8 0.4-0.8 0.8 0 0.4 0.3 0.8 0.8 0.8 0.4 0 0.8-0.3 0.8-0.8C47.3 44.1 47 43.7 46.5 43.7" class="a"/><path d="M46.5 43.8l-0.7 0.7 0.7 0.7 0.7-0.7L46.5 43.8M46.5 45.4c-0.5 0-0.9-0.4-0.9-0.9 0-0.5 0.4-0.9 0.9-0.9 0.5 0 0.9 0.4 0.9 0.9C47.4 45 47 45.4 46.5 45.4"/><path d="M36.1 41.3c1.1 1.3 2.4 2 4 2 1.5 0 2.6-0.5 3.8-2 -1.2-1.3-2.4-1.8-3.9-1.8C38.5 39.5 37.1 40.2 36.1 41.3" class="a"/><path d="M36.9 41.3c1.1-0.8 2-1.2 3.1-1.2 1.1 0 2 0.3 3.1 1.2 -1 1-1.8 1.3-3.1 1.3C38.9 42.7 37.8 42.2 36.9 41.3"/><path d="M38.2 41.1c0.7 0.4 1.2 0.6 1.8 0.6 0.7 0 1.3-0.2 1.9-0.6 -0.6-0.3-1.2-0.4-1.9-0.4C39.4 40.6 38.8 40.8 38.2 41.1" class="a"/><rect x="31.7" y="35.6" width="16.8" height="0.6"/><path d="M31.7 36.2h16.9v-0.6H31.7V36.2zM31.8 35.6h16.8v0.5H31.8V35.6z" fill="#1D201D"/><path d="M34.3 34.9v1.6c0 0.4 0.3 0.7 0.7 0.7 0.5 0 0.7-0.2 0.7-0.7v-1.6c0-0.6-0.3-1-0.7-1l-0.3 0.1 -0.2 0.1 -0.2 0.2L34.3 34.6" class="a"/><path d="M39.4 36.2v0.3c0 0.4 0.3 0.7 0.7 0.7 0.5 0 0.7-0.2 0.7-0.7v-1.6c0-0.6-0.2-1-0.6-1 -0.5 0-0.8 0.4-0.8 1" class="a"/><path d="M44.3 34.9v1.6c0 0.4 0.3 0.7 0.7 0.7 0.5 0 0.7-0.2 0.7-0.7v-1.6c0-0.6-0.2-1-0.6-1l-0.3 0.1 -0.2 0.1 -0.2 0.2 -0.1 0.3" class="a"/><rect x="34" y="48.5" width="1.5" height="2" class="a"/><rect x="34" y="50.9" width="1.5" height="0.6" class="a"/><rect x="44.4" y="48.5" width="1.5" height="2" class="a"/><rect x="44.4" y="50.9" width="1.5" height="0.6" class="a"/></svg>